<?xml version="1.0" encoding="utf-8"?>
<!-- Generator: Adobe Illustrator 19.0.0, SVG Export Plug-In . SVG Version: 6.00 Build 0)  -->
<svg version="1.1" id="Layer_1" xmlns="http://www.w3.org/2000/svg" xmlns:xlink="http://www.w3.org/1999/xlink" x="0px" y="0px"
	 viewBox="-455 -19 48 48" style="enable-background:new -455 -19 48 48;" xml:space="preserve">
<style type="text/css">
	.st0{fill:#507274;}
</style>
<g>
	<path class="st0" d="M-419.4,1.7c-0.7-0.4-2.6-1.6-3.2-5c1.1-0.1,4.3-0.3,5.7,0.8c0.4,0.3,0.6,0.7,0.7,1.2c0,0.3,0.2,0.4,0.5,0.4
		c0,0,0,0,0.1,0c0.3,0,0.5-0.3,0.4-0.6c-0.1-0.8-0.4-1.4-1.1-1.9c-1.6-1.3-4.7-1.1-6.2-1c0.4-1.3,1.6-2.9,3-3.7
		c0.7-0.4,1.8-0.8,2.8-0.2c0.2,0.1,0.5,0,0.7-0.2c0.1-0.2,0-0.5-0.2-0.7c-1.2-0.6-2.5-0.6-3.8,0.2c-1.5,0.9-2.8,2.6-3.4,4.1
		c-2-2.6-5.5-4.1-9.2-3.8c-0.3,0-0.5,0.3-0.5,0.5c0,0.3,0.3,0.5,0.5,0.5c3.4-0.3,6.5,1,8.2,3.3c-3.7-0.3-6.9,0.5-9.3,2.5
		c-0.2,0.2-0.2,0.5-0.1,0.7c0.2,0.2,0.5,0.2,0.7,0.1c2.6-2.2,5.8-2.5,8.1-2.3c-1.1,0.7-2.6,1.9-3,3.5c-0.3,1,0,2.1,0.7,3.1
		c0.1,0.1,0.2,0.2,0.4,0.2c0.1,0,0.2,0,0.3-0.1c0.2-0.2,0.3-0.5,0.1-0.7c-0.6-0.8-0.7-1.5-0.5-2.2c0.4-1.6,2.4-2.8,3.4-3.3
		c0.7,3.7,2.9,5,3.7,5.5c0.1,0,8.6,5,8.6,9.3c0,0.3,0.2,0.5,0.5,0.5s0.5-0.2,0.5-0.5C-410.3,7-419,1.9-419.4,1.7z"/>
	<path class="st0" d="M-427.9,11.7l-3,3.5h-6.3l0-7.5h9.6c0.2,0,0.4-0.1,0.5-0.4c0.1-0.2,0-0.4-0.2-0.6l-10.1-6.4
		c-0.2-0.1-0.4-0.1-0.6,0l-9.1,6.4c-0.2,0.1-0.3,0.4-0.2,0.6c0.1,0.2,0.3,0.4,0.5,0.4h8.7l0,7.5h-1.5c-0.1,0-0.1,0-0.2,0
		c0,0,0,0,0,0l-4,2c-0.2,0.1-0.3,0.4-0.2,0.7c0.1,0.2,0.3,0.3,0.4,0.3c0.1,0,0.2,0,0.2-0.1l3.2-1.6v2.6c0,0.3,0.2,0.5,0.5,0.5
		s0.5-0.2,0.5-0.5v-2.9h1V19c0,0.3,0.2,0.5,0.5,0.5c0.3,0,0.5-0.2,0.5-0.5v-2.9h6v2.9c0,0.3,0.2,0.5,0.5,0.5s0.5-0.2,0.5-0.5v-3.2
		l3.1-3.6c0.2-0.2,0.2-0.5-0.1-0.7C-427.4,11.4-427.7,11.5-427.9,11.7z M-437.8,1.3l8.4,5.3h-8.3c0,0,0,0,0,0c0,0,0,0,0,0h-7.6
		L-437.8,1.3z"/>
	<path class="st0" d="M-441.4,9.8c0.4,0.1,0.7,0.1,1.1,0.2c0.3,0.1,0.5-0.1,0.6-0.3c0.1-0.3-0.1-0.5-0.3-0.6
		c-0.4-0.1-0.8-0.2-1.2-0.3c-1.7-0.3-3.1,0.3-4.3,0.8c-1.7,0.7-3.2,1.3-5.4-0.2c-0.2-0.2-0.5-0.1-0.7,0.1c-0.2,0.2-0.1,0.5,0.1,0.7
		c1.2,0.8,2.3,1.1,3.2,1.1c1.1,0,2.1-0.4,3.1-0.8C-444,10-442.9,9.6-441.4,9.8z"/>
	<path class="st0" d="M-414.3,9.8c-3.1,2-4.9,1.4-7.2,0.8c-0.7-0.2-1.5-0.4-2.3-0.6c-3.5-0.9-4.2-0.7-5.4-0.2
		c-0.6,0.3-1.5,0.6-3.2,0.9c-0.9,0.1-1.7,0.1-2.5-0.1c-0.3-0.1-0.5,0.1-0.6,0.4c-0.1,0.3,0.1,0.5,0.4,0.6c0.9,0.2,1.9,0.2,2.8,0.1
		c1.9-0.3,2.8-0.6,3.5-0.9c1-0.4,1.4-0.6,4.8,0.2c0.8,0.2,1.5,0.4,2.2,0.6c1.1,0.3,2.2,0.7,3.5,0.7c1.3,0,2.8-0.4,4.6-1.5
		c0.2-0.1,0.3-0.5,0.1-0.7S-414,9.7-414.3,9.8z"/>
</g>
</svg>
