<?xml version="1.0" encoding="utf-8"?>
<!-- Generator: Adobe Illustrator 19.0.0, SVG Export Plug-In . SVG Version: 6.00 Build 0)  -->
<svg version="1.1" id="Layer_1" xmlns="http://www.w3.org/2000/svg" xmlns:xlink="http://www.w3.org/1999/xlink" x="0px" y="0px"
	 viewBox="-455 -19 48 48" style="enable-background:new -455 -19 48 48;" xml:space="preserve">
<style type="text/css">
	.st0{fill:#507274;}
</style>
<g>
	<path class="st0" d="M-452.9,23.6c0.1,0,0.1,0,0.2-0.1l1.8-0.9c0.2-0.1,0.4-0.4,0.2-0.7c-0.1-0.2-0.4-0.3-0.7-0.2l-1.8,0.9
		c-0.2,0.1-0.4,0.4-0.2,0.7C-453.2,23.5-453.1,23.6-452.9,23.6z"/>
	<path class="st0" d="M-439.8,17c0.1,0,0.1,0,0.2-0.1l1.9-0.9c0.2-0.1,0.4-0.4,0.2-0.7c-0.1-0.2-0.4-0.3-0.7-0.2l-1.9,0.9
		c-0.2,0.1-0.3,0.4-0.2,0.7C-440.1,16.9-440,17-439.8,17z"/>
	<path class="st0" d="M-425.5,10c0.1,0,0.1,0,0.2-0.1l1.9-0.9c0.2-0.1,0.4-0.4,0.2-0.7c-0.1-0.2-0.4-0.3-0.7-0.2l-1.9,0.9
		c-0.2,0.1-0.4,0.4-0.2,0.7C-425.8,9.9-425.7,10-425.5,10z"/>
	<path class="st0" d="M-422.5,18.8c-0.2-0.2-0.5-0.3-0.7-0.1l-1.7,1.3c-0.2,0.2-0.3,0.5-0.1,0.7c0.1,0.1,0.3,0.2,0.4,0.2
		c0.1,0,0.2,0,0.3-0.1l1.7-1.3C-422.4,19.3-422.4,19-422.5,18.8z"/>
	<path class="st0" d="M-412.1,12.6l1.6-1.2c0.2-0.2,0.3-0.5,0.1-0.7c-0.2-0.2-0.5-0.3-0.7-0.1l-1.6,1.2c-0.2,0.2-0.3,0.5-0.1,0.7
		c0.1,0.1,0.3,0.2,0.4,0.2C-412.3,12.7-412.2,12.7-412.1,12.6z"/>
	<path class="st0" d="M-408.9-7h-1.6v-1.5c0,0,0,0,0,0c0.2,0,0.4-0.1,0.5-0.4c0.1-0.3-0.1-0.5-0.3-0.6c0,0-3.8-1.2-5.2-3.3
		c-0.1-0.1-0.2-0.2-0.4-0.2c-0.2,0-0.3,0-0.4,0.2c-0.8,0.9-3.3,3.2-5,3.1c-0.3,0-0.5,0.2-0.5,0.5c0,0.3,0.2,0.5,0.5,0.5
		c0.1,0,0.3,0,0.4,0l0,1.8l-1.9,0c-0.1,0-0.3,0.1-0.4,0.1c-0.1,0.1-0.1,0.2-0.1,0.4l0,2l-1.1-0.5c-0.2-0.1-0.3-0.1-0.5,0
		s-0.2,0.3-0.2,0.4v1.2l-1.6-0.7l0-1.6c0-0.2-0.1-0.4-0.3-0.5l-2.8-1.2c-0.2-0.1-0.3-0.1-0.5,0c-0.1,0.1-0.2,0.2-0.2,0.4l0,1.2
		l-1.6-0.7l0-1.6c0-0.2-0.1-0.4-0.3-0.5l-2.2-1v-2.8c0-0.3-0.2-0.5-0.5-0.5h-1.5c-0.3,0-0.5,0.2-0.5,0.5v1.2h-0.5v-1.2
		c0-0.3-0.2-0.5-0.5-0.5h-1.5c-0.3,0-0.5,0.2-0.5,0.5v1.2h-0.5v-1.2c0-0.3-0.2-0.5-0.5-0.5h-1.4c-0.3,0-0.5,0.2-0.5,0.5v7
		c0,0.2,0.1,0.4,0.3,0.4l19.6,10.5v0.1l-6.2,3c-0.2,0.1-0.3,0.3-0.3,0.4v2L-435,14v-1.5c0-0.2-0.1-0.3-0.2-0.4
		c-0.1-0.1-0.3-0.1-0.5,0l-6.6,3.3c-0.2,0.1-0.3,0.3-0.3,0.4v2l-5.2,2.6v-1.5c0-0.2-0.1-0.3-0.2-0.4c-0.1-0.1-0.3-0.1-0.5,0
		l-4.6,2.3c-0.2,0.1-0.3,0.4-0.2,0.7c0.1,0.2,0.3,0.3,0.4,0.3c0.1,0,0.2,0,0.2-0.1l3.9-2v1.5c0,0.2,0.1,0.3,0.2,0.4
		c0.1,0.1,0.3,0.1,0.5,0l6.2-3.1c0.2-0.1,0.3-0.3,0.3-0.4v-2l5.6-2.8v1.5c0,0.2,0.1,0.3,0.2,0.4c0.1,0.1,0.3,0.1,0.5,0l6.3-3.1
		c0.2-0.1,0.3-0.3,0.3-0.4v-2l7.9-3.9l0.1,2.4l-32.6,17c-0.2,0.1-0.3,0.4-0.2,0.7c0.1,0.2,0.3,0.3,0.4,0.3c0.1,0,0.2,0,0.2-0.1
		L-420,9c0,0,0,0,0,0l6.8,0l-2,1.5c-0.1,0.1-0.2,0.2-0.2,0.4l0,2.3l-4.8,3.5l0-1.6c0-0.2-0.1-0.4-0.3-0.4c-0.2-0.1-0.4-0.1-0.5,0
		l-6.3,4.6c-0.1,0.1-0.2,0.2-0.2,0.4l0,2.3l-4.6,3.4l0-1.6c0-0.2-0.1-0.4-0.3-0.4s-0.4-0.1-0.5,0l-4.3,3.2c-0.2,0.2-0.3,0.5-0.1,0.7
		c0.1,0.1,0.2,0.2,0.4,0.2c0.1,0,0.2,0,0.3-0.1l3.5-2.6l0,1.6c0,0.2,0.1,0.4,0.3,0.4c0.2,0.1,0.4,0.1,0.5,0l5.6-4.1
		c0.1-0.1,0.2-0.2,0.2-0.4l0-2.3l5.3-3.9l0,1.6c0,0.2,0.1,0.4,0.3,0.4c0.2,0.1,0.4,0.1,0.5,0l5.8-4.3c0.1-0.1,0.2-0.2,0.2-0.4l0-2.3
		l3-2.2c0.1,0,0.2-0.1,0.2-0.2l1.8-1.3v5.6l-13.6,13.5c-0.2,0.2-0.2,0.5,0,0.7c0.1,0.1,0.2,0.1,0.4,0.1c0.1,0,0.3,0,0.4-0.1
		l13.8-13.7c0.1-0.1,0.1-0.2,0.1-0.4V-6.5C-408.4-6.8-408.6-7-408.9-7z M-416-11.8c1.2,1.5,3.3,2.5,4.5,3V-7h-0.1
		c-0.3,0-0.5,0.2-0.5,0.5v0.9h-1.8v-0.9c0-0.2-0.2-0.4-0.4-0.5v-2.2c0-0.3-0.2-0.5-0.5-0.5h-2c-0.3,0-0.5,0.2-0.5,0.5V-7
		c-0.2,0.1-0.4,0.2-0.4,0.5v0.9h-1.9v-0.9c0-0.1-0.1-0.3-0.1-0.4c-0.1-0.1-0.1-0.1-0.2-0.1l0-2.1C-418.3-9.6-416.7-11-416-11.8z
		 M-416.4-7v-1.6h1V-7H-416.4z M-420.6-6v0.9c0,0.3,0.2,0.5,0.5,0.5h2.9c0.3,0,0.5-0.2,0.5-0.5V-6h1.8v0.9c0,0.3,0.2,0.5,0.5,0.5
		h2.8c0.3,0,0.5-0.2,0.5-0.5V-6h1.7v2.5h-12.9l0-2.5L-420.6-6z M-429.8-2.9l-4.4-2.1c-0.2-0.1-0.3-0.1-0.5,0
		c-0.1,0.1-0.2,0.3-0.2,0.4v0.7l-3.1-1.5v-1.2c0,0,0,0,0,0l2.7,0l11.9,5.2l0,1.7l-2.3-1.2c-0.2-0.1-0.3-0.1-0.5,0
		c-0.1,0.1-0.2,0.3-0.2,0.4v0.7l-3.1-1.5v-1.2C-429.5-2.6-429.6-2.8-429.8-2.9z M-442.2-10h6.5v1c0,0,0,0,0,0v1.4l-1.4,0v-1.2
		c0-0.6-0.5-1-1-1h-0.3c-0.6,0-1,0.5-1,1v1.2l-2.8-1.4L-442.2-10L-442.2-10z M-438.1-7.6l-0.3,0l0-1.2l0.3,0V-7.6z M-424.1-3.7
		l0.8,0.4l0,0.9l-0.8-0.4V-3.7z M-429.5-6l1.8,0.8l0,0.9l-1.8-0.8L-429.5-6z M-433.1-7.6l0,0.8l-1.5-0.7v-0.8L-433.1-7.6z
		 M-436.1-11.6h0.5v0.7h-0.5V-11.6z M-439.2-11.6h0.5v0.7h-0.5V-11.6z M-441.7-11.6v0.7h-0.4v-0.7H-441.7z M-442.2-5.4v-2.4l3.2,1.6
		v1.2c0,0.2,0.1,0.4,0.3,0.4l4.1,2c0.2,0.1,0.3,0.1,0.5,0s0.2-0.3,0.2-0.4v-0.7l3.4,1.6v1.2c0,0.2,0.1,0.4,0.3,0.4l4.1,2
		c0.2,0.1,0.3,0.1,0.5,0s0.2-0.3,0.2-0.4V0.4l2.1,1l0,0.4l-0.8-0.4c-0.2-0.1-0.5,0-0.7,0.2c-0.1,0.2,0,0.5,0.2,0.7l1.3,0.7l0,1.8
		L-442.2-5.4z M-414.9,8l-3.3,0V3c0-0.7,0.5-1.3,1.2-1.3h1c0.6,0,1.2,0.6,1.2,1.3C-414.9,3-414.9,8-414.9,8z M-411.8,8l-2.2,0V3
		c0-1.3-1-2.3-2.2-2.3h-1c-1.2,0-2.2,1-2.2,2.3v5l-0.4,0l-0.1-2.9c0-0.2-0.1-0.3-0.2-0.4c-0.1-0.1-0.3-0.1-0.5,0l-1.7,0.9l0-7.1
		c0,0,0-0.1,0-0.1l0-0.7h12.9v8.7L-411.8,8z"/>
	<path class="st0" d="M-431.4-2.2l-1.1-0.5c-0.2-0.1-0.5,0-0.7,0.2c-0.1,0.2,0,0.5,0.2,0.7l1.1,0.5c0.1,0,0.1,0.1,0.2,0.1
		c0.2,0,0.4-0.1,0.4-0.3C-431-1.8-431.1-2.1-431.4-2.2z"/>
	<path class="st0" d="M-440-6.4l-1-0.5c-0.2-0.1-0.5,0-0.7,0.2c-0.1,0.2,0,0.5,0.2,0.7l1,0.5c0.1,0,0.1,0.1,0.2,0.1
		c0.2,0,0.4-0.1,0.4-0.3C-439.6-6-439.7-6.3-440-6.4z"/>
	<path class="st0" d="M-416-15.1c0.3,0,0.5-0.2,0.5-0.5v-1.3c0-0.3-0.2-0.5-0.5-0.5s-0.5,0.2-0.5,0.5v1.3
		C-416.5-15.4-416.3-15.1-416-15.1z"/>
	<path class="st0" d="M-421.4-10.6c2.2,0.2,4.4-2.1,5.4-3.1c1.9,2.4,5.8,3.6,5.9,3.6c0,0,0.1,0,0.1,0c0.2,0,0.4-0.1,0.5-0.4
		c0.1-0.3-0.1-0.5-0.3-0.6c0,0-4.2-1.3-5.8-3.7c-0.1-0.1-0.2-0.2-0.4-0.2c-0.2,0-0.3,0.1-0.4,0.2c0,0-2.7,3.4-4.9,3.2
		c-0.3,0-0.5,0.2-0.5,0.5C-421.8-10.9-421.6-10.6-421.4-10.6z"/>
</g>
</svg>
