<?xml version="1.0" encoding="utf-8"?>
<!-- Generator: Adobe Illustrator 19.0.0, SVG Export Plug-In . SVG Version: 6.00 Build 0)  -->
<svg version="1.1" id="Layer_1" xmlns="http://www.w3.org/2000/svg" xmlns:xlink="http://www.w3.org/1999/xlink" x="0px" y="0px"
	 viewBox="-455 -19 48 48" style="enable-background:new -455 -19 48 48;" xml:space="preserve">
<style type="text/css">
	.st0{fill:#507274;}
</style>
<g>
	<path class="st0" d="M-413.7-6.9l-21.6,0.1c-0.3-1.1-1.4-2.7-2.5-2.7h-7.5c-1.1,0-2.2,1.5-2.5,2.6h-0.4c-1.9,0-3.5,1.6-3.5,3.5
		v19.5c0,1.9,1.6,3.5,3.5,3.5h34.5c1.9,0,3.5-1.6,3.5-3.5V-3.4C-410.2-5.4-411.8-6.9-413.7-6.9z M-411.2,16.1c0,1.4-1.1,2.5-2.5,2.5
		h-34.5c-1.4,0-2.5-1.1-2.5-2.5V-3.4c0-1.4,1.1-2.5,2.5-2.5h0.9c0.3,0,0.5-0.2,0.5-0.5c0-0.7,1-2.1,1.6-2.1h7.5
		c0.5,0,1.6,1.5,1.6,2.2c0,0.1,0.1,0.3,0.1,0.4c0.1,0.1,0.2,0.1,0.4,0.1h0l22-0.1c1.4,0,2.5,1.1,2.5,2.5
		C-411.2-3.4-411.2,16.1-411.2,16.1z"/>
	<path class="st0" d="M-431.2-2.8c-5.1,0-9.3,4.1-9.3,9.3c0,5.1,4.1,9.3,9.3,9.3c5.1,0,9.3-4.1,9.3-9.3
		C-422,1.4-426.1-2.8-431.2-2.8z M-431.2,14.8c-4.6,0-8.3-3.7-8.3-8.3c0-4.5,3.7-8.3,8.3-8.3c4.5,0,8.3,3.7,8.3,8.3
		C-423,11-426.7,14.8-431.2,14.8z"/>
	<path class="st0" d="M-431.2,1.5c-2.8,0-5,2.2-5,5c0,2.8,2.2,5,5,5c2.8,0,5-2.2,5-5C-426.2,3.7-428.4,1.5-431.2,1.5z M-431.2,10.5
		c-2.2,0-4-1.8-4-4s1.8-4,4-4s4,1.8,4,4S-429,10.5-431.2,10.5z"/>
	<path class="st0" d="M-415.9-3.8h-3.3c-0.9,0-1.7,0.7-1.7,1.7s0.7,1.7,1.7,1.7h3.3c0.9,0,1.7-0.7,1.7-1.7S-415-3.8-415.9-3.8z
		 M-415.9-1.5h-3.3c-0.4,0-0.7-0.3-0.7-0.7s0.3-0.7,0.7-0.7h3.3c0.4,0,0.7,0.3,0.7,0.7S-415.5-1.5-415.9-1.5z"/>
</g>
</svg>
