<?xml version="1.0" encoding="utf-8"?>
<!-- Generator: Adobe Illustrator 19.0.0, SVG Export Plug-In . SVG Version: 6.00 Build 0)  -->
<svg version="1.1" id="Layer_1" xmlns="http://www.w3.org/2000/svg" xmlns:xlink="http://www.w3.org/1999/xlink" x="0px" y="0px"
	 viewBox="-455 -19 48 48" style="enable-background:new -455 -19 48 48;" xml:space="preserve">
<style type="text/css">
	.st0{fill:#507274;}
</style>
<path class="st0" d="M-409.6,17c-0.3-1.2-0.7-5-0.7-5.4V5.3c0-0.2-0.1-0.4-0.4-0.5l-4.9-1.4l4-1.4c0.7-0.2,1.2-0.7,1.3-1.3
	c0.1-0.6-0.3-1.1-0.9-1.4L-428-6.9c-1.3-0.5-2.5-0.8-3.7-0.8c-1.5,0-2.7,0.4-3.4,0.7l-15,5.4c-2.1,0.7-2.6,1.6-2.5,2.2
	c0,0.8,0.9,1.5,2.6,1.9l5.3,1.8v8.2c0,0.1,0,0.1,0,0.2c0,0.1,1.2,3.3,7.4,3.9l13,0c0.2,0,4.5-0.7,5.9-3.9c0-0.1,0-0.1,0-0.2V4.4
	l1.2-0.4l5.9,1.7l0,6c0,0,0,0,0,0c0,0.2-0.2,3.8-0.7,5.4c0,0.2,0,0.3,0.1,0.4c0.1,0.1,0.2,0.2,0.4,0.2h1.4c0.2,0,0.3-0.1,0.4-0.2
	C-409.6,17.3-409.5,17.2-409.6,17z M-419.4,12.3c-1.3,2.6-5.1,3.2-5.1,3.2l-12.9,0c-5-0.4-6.3-2.7-6.4-3.1V4.6l8.5,2.9
	c1.6,0.6,2.7,0.8,3.9,0.8c1,0,2-0.2,3.1-0.5l8.8-3.1L-419.4,12.3L-419.4,12.3z M-428.5,6.8c-2.3,0.7-3.7,0.7-6.4-0.3l-14.8-5
	c-1.5-0.4-1.9-0.8-1.9-1c0-0.1,0.3-0.7,1.9-1.2l15-5.4c0.6-0.2,1.7-0.6,3-0.6c1.1,0,2.2,0.2,3.4,0.7l16.9,6.1
	c0.2,0.1,0.3,0.2,0.3,0.4c0,0.2-0.2,0.4-0.6,0.5l-5.3,1.8l-12.9-3.8c-0.3-0.1-0.5,0.1-0.6,0.3s0.1,0.5,0.3,0.6l11.5,3.4L-428.5,6.8z
	 M-410.8,16.7c0-0.2,0.1-0.3,0.1-0.5c0,0.2,0.1,0.4,0.1,0.5H-410.8z"/>
</svg>
