<?xml version="1.0" encoding="utf-8"?>
<!-- Generator: Adobe Illustrator 19.0.0, SVG Export Plug-In . SVG Version: 6.00 Build 0)  -->
<svg version="1.1" id="Layer_1" xmlns="http://www.w3.org/2000/svg" xmlns:xlink="http://www.w3.org/1999/xlink" x="0px" y="0px"
	 viewBox="-455 -19 48 48" style="enable-background:new -455 -19 48 48;" xml:space="preserve">
<style type="text/css">
	.st0{fill:#507274;}
</style>
<g>
	<path class="st0" d="M-417-2.6l0-0.5c-1.1-6.7-6.9-11.5-13.9-11.5c-7.2,0-13.3,5.3-14,12.4v0.2c-0.1,11.8,13.5,26.7,13.6,26.9
		c0.1,0.1,0.2,0.1,0.4,0.1c0,0,0,0,0,0c0.1,0,0.3-0.1,0.4-0.2C-430,24.1-416.5,9.1-417-2.6z M-430.9,23.7
		c-2.2-2.5-13.1-15.6-13-25.8l0-0.2c0.7-6.5,6.3-11.4,13-11.4c6.5,0,12,4.5,13,10.7l0,0.5C-417.6,7.7-428.7,21.1-430.9,23.7z"/>
	<path class="st0" d="M-430.9-8c-3.9,0-7.1,3.2-7.1,7.2s3.2,7.2,7.1,7.2c3.9,0,7.2-3.2,7.2-7.2C-423.8-4.8-427-8-430.9-8z
		 M-430.9,5.4c-3.4,0-6.1-2.8-6.1-6.2s2.8-6.2,6.1-6.2c3.4,0,6.2,2.8,6.2,6.2S-427.6,5.4-430.9,5.4z"/>
</g>
</svg>
