<?xml version="1.0" encoding="utf-8"?>
<!-- Generator: Adobe Illustrator 19.0.0, SVG Export Plug-In . SVG Version: 6.00 Build 0)  -->
<svg version="1.1" id="Layer_1" xmlns:sketch="http://www.bohemiancoding.com/sketch/ns"
	 xmlns="http://www.w3.org/2000/svg" xmlns:xlink="http://www.w3.org/1999/xlink" x="0px" y="0px" viewBox="-467 164 24 24"
	 style="enable-background:new -467 164 24 24;" xml:space="preserve">
<style type="text/css">
	.st0{fill:#507274;}
</style>
<title></title>
<desc></desc>
<g id="miu">
	<g id="Artboard-1" transform="translate(-719.000000, -119.000000)">
		<g id="slice" transform="translate(215.000000, 119.000000)">
		</g>
		<path id="circle-info-more-information-detail-outline-stroke" class="st0" d="M253,294.5c0-6.4,5.1-11.5,11.5-11.5
			s11.5,5.1,11.5,11.5s-5.1,11.5-11.5,11.5S253,300.9,253,294.5z M275,294.5c0-5.8-4.7-10.5-10.5-10.5s-10.5,4.7-10.5,10.5
			c0,5.8,4.7,10.5,10.5,10.5S275,300.3,275,294.5z M264.8,290c0.7,0,1.3-0.6,1.3-1.3s-0.6-1.3-1.3-1.3s-1.3,0.6-1.3,1.3
			S264.1,290,264.8,290z M262,291v1h1.5v7H262v1h5.5v-1H266v-8H262z"/>
	</g>
</g>
</svg>
