<?xml version="1.0" encoding="utf-8"?>
<!-- Generator: Adobe Illustrator 19.0.0, SVG Export Plug-In . SVG Version: 6.00 Build 0)  -->
<svg version="1.1" id="Layer_1" xmlns="http://www.w3.org/2000/svg" xmlns:xlink="http://www.w3.org/1999/xlink" x="0px" y="0px"
	 viewBox="-255 -48.7 447.7 447.7" style="enable-background:new -255 -48.7 447.7 447.7;" xml:space="preserve">
<style type="text/css">
	.st0{fill:#507274;}
</style>
<g>
	<path class="st0" d="M-120.7,89.5h-24.7L-78,280l37.7-107.8l-29.3-82.7h-26.1V71.3H19.9v18.2h-27L60.2,280l24.2-69.2
		c31.8-88.7-26-116.3-26-136.1s16-35.8,35.8-35.8c1.1,0,2.1,0.1,3.1,0.2C63.8,7.3,18.6-12.1-31.2-12.1c-65,0-122.3,33.1-155.9,83.5
		h66.3L-120.7,89.5L-120.7,89.5L-120.7,89.5z"/>
	<path class="st0" d="M-218.5,175.2c0,71.7,40.3,134,99.5,165.5l-84.5-238.9C-213.1,124.3-218.5,149.1-218.5,175.2z"/>
	<path class="st0" d="M131.8,82.9c2.7,15.8,1.9,33.5-2.2,51.3h0.7l-2.8,8.1l0,0c-1.7,5.8-3.8,11.8-6.2,17.7L56.9,340.5
		c59.1-31.5,99.3-93.7,99.3-165.3C156.1,141.6,147.3,110.1,131.8,82.9z"/>
	<path class="st0" d="M-88.9,353.4c18.2,5.9,37.6,9.1,57.8,9.1c19.2,0,37.8-2.9,55.2-8.3l-54.8-154.9L-88.9,353.4z"/>
	<path class="st0" d="M127.1,16.9C84.8-25.4,28.6-48.7-31.2-48.7s-116,23.3-158.3,65.6S-255,115.4-255,175.2
		c0,59.8,23.3,116,65.6,158.3S-91,399-31.2,399s116-23.3,158.3-65.6c42.3-42.3,65.6-98.5,65.6-158.3
		C192.7,115.4,169.4,59.2,127.1,16.9z M-31.2,383.2c-114.7,0-208-93.3-208-208s93.3-208,208-208s208,93.3,208,208
		S83.6,383.2-31.2,383.2z"/>
</g>
</svg>
