<?xml version="1.0" encoding="utf-8"?>
<!-- Generator: Adobe Illustrator 19.0.0, SVG Export Plug-In . SVG Version: 6.00 Build 0)  -->
<svg version="1.1" id="Layer_1" xmlns="http://www.w3.org/2000/svg" xmlns:xlink="http://www.w3.org/1999/xlink" x="0px" y="0px"
	 viewBox="-463 160 32 32" style="enable-background:new -463 160 32 32;" xml:space="preserve">
<style type="text/css">
	.st0{fill:#507274;}
</style>
<g>
	<path class="st0" d="M-432.2,167.3l-11.5-6.5c-1.6-0.9-4.3-0.9-5.8,0l-11.5,6.5c-0.9,0.5-1.4,1.2-1.4,2c0,0.8,0.5,1.5,1.4,2
		l11.5,6.5c0.8,0.4,1.8,0.7,2.9,0.7c1.1,0,2.1-0.2,2.9-0.7l11.5-6.5c0.9-0.5,1.4-1.2,1.4-2C-430.9,168.5-431.4,167.8-432.2,167.3z
		 M-432.8,170.3l-11.5,6.5c-1.2,0.7-3.6,0.7-4.8,0l-11.5-6.5c-0.5-0.3-0.8-0.7-0.8-1c0-0.4,0.3-0.7,0.8-1l11.5-6.5
		c0.6-0.3,1.5-0.5,2.4-0.5c0.9,0,1.8,0.2,2.4,0.5l11.5,6.5c0.5,0.3,0.8,0.7,0.8,1C-431.9,169.6-432.2,170-432.8,170.3z"/>
	<path class="st0" d="M-432.2,174.1c-0.3-0.1-0.6-0.1-0.7,0.2c-0.1,0.3-0.1,0.6,0.2,0.7c0.5,0.3,0.8,0.7,0.8,1c0,0.4-0.3,0.7-0.8,1
		l-11.5,6.5c-1.3,0.7-3.5,0.7-4.8,0l-11.5-6.5c-0.5-0.3-0.8-0.7-0.8-1s0.3-0.7,0.8-1c0.3-0.1,0.3-0.5,0.2-0.7
		c-0.1-0.3-0.5-0.3-0.7-0.2c-0.9,0.5-1.4,1.2-1.4,2c0,0.8,0.5,1.5,1.4,2l11.5,6.5c0.8,0.5,1.9,0.7,2.9,0.7c1.1,0,2.1-0.2,2.9-0.7
		l11.5-6.5c0.9-0.5,1.4-1.2,1.4-2C-430.9,175.3-431.4,174.6-432.2,174.1z"/>
	<path class="st0" d="M-432.2,180.8c-0.3-0.1-0.6-0.1-0.7,0.2c-0.1,0.3-0.1,0.6,0.2,0.7c0.5,0.3,0.8,0.7,0.8,1s-0.3,0.7-0.8,1
		l-11.5,6.5c-1.3,0.7-3.5,0.7-4.8,0l-11.5-6.5c-0.5-0.3-0.8-0.7-0.8-1c0-0.4,0.3-0.7,0.8-1c0.3-0.1,0.3-0.5,0.2-0.7
		c-0.1-0.3-0.5-0.3-0.7-0.2c-0.9,0.5-1.4,1.2-1.4,2s0.5,1.5,1.4,2l11.5,6.5c0.8,0.5,1.9,0.7,2.9,0.7c1.1,0,2.1-0.2,2.9-0.7l11.5-6.5
		c0.9-0.5,1.4-1.2,1.4-2C-430.9,182-431.4,181.3-432.2,180.8z"/>
</g>
</svg>
