<?xml version="1.0" encoding="utf-8"?>
<!-- Generator: Adobe Illustrator 19.0.0, SVG Export Plug-In . SVG Version: 6.00 Build 0)  -->
<svg version="1.1" id="Layer_1" xmlns:sketch="http://www.bohemiancoding.com/sketch/ns"
	 xmlns="http://www.w3.org/2000/svg" xmlns:xlink="http://www.w3.org/1999/xlink" x="0px" y="0px" viewBox="-118 120 62 61"
	 style="enable-background:new -118 120 62 61;" xml:space="preserve">
<style type="text/css">
	.st0{fill:none;stroke:#507274;stroke-width:2;}
</style>
<title>Arrow-big-bottom-right</title>
<desc>Created with Sketch.</desc>
<g id="Page-1" sketch:type="MSPage">
	<g id="Arrow-big-bottom-right" transform="translate(1.000000, 1.000000)" sketch:type="MSLayerGroup">
		<path id="Shape" sketch:type="MSShapeGroup" class="st0" d="M-92.6,163.2l-24.9-24.8c-0.7-0.7-0.7-1.7,0-2.4l15.6-15.5
			c0.7-0.7,1.7-0.7,2.4,0l24.9,24.8"/>
		<path id="Shape_1_" sketch:type="MSShapeGroup" class="st0" d="M-78,141.9l7.7-7.7c0.7-0.7,1.7-0.7,2.4,0l9.4,41.3
			c0.7,0.7,0.6,1.7,0,2.4l-0.6,0.6c-0.7,0.7-1.7,0.7-2.4,0l-42.1-8.8c-0.7-0.7-0.7-1.7,0-2.4l7.7-7.7"/>
	</g>
</g>
</svg>
