<?xml version="1.0" encoding="utf-8"?>
<!-- Generator: Adobe Illustrator 19.0.0, SVG Export Plug-In . SVG Version: 6.00 Build 0)  -->
<svg version="1.1" id="Layer_1" xmlns="http://www.w3.org/2000/svg" xmlns:xlink="http://www.w3.org/1999/xlink" x="0px" y="0px"
	 viewBox="-455 152 48 48" style="enable-background:new -455 152 48 48;" xml:space="preserve">
<style type="text/css">
	.st0{fill:#507274;}
</style>
<g>
	<path class="st0" d="M-413.7,164.1l-21.6,0.1c-0.3-1.1-1.4-2.7-2.5-2.7h-7.5c-1.1,0-2.2,1.5-2.5,2.6h-0.4c-1.9,0-3.5,1.6-3.5,3.5
		v19.5c0,1.9,1.6,3.5,3.5,3.5h34.5c1.9,0,3.5-1.6,3.5-3.5v-19.5C-410.2,165.6-411.8,164.1-413.7,164.1z M-411.2,187.1
		c0,1.4-1.1,2.5-2.5,2.5h-34.5c-1.4,0-2.5-1.1-2.5-2.5v-19.5c0-1.4,1.1-2.5,2.5-2.5h0.9c0.3,0,0.5-0.2,0.5-0.5c0-0.7,1-2.1,1.6-2.1
		h7.5c0.5,0,1.6,1.5,1.6,2.2c0,0.1,0.1,0.3,0.1,0.4c0.1,0.1,0.2,0.1,0.4,0.1h0l22-0.1c1.4,0,2.5,1.1,2.5,2.5
		C-411.2,167.6-411.2,187.1-411.2,187.1z"/>
	<path class="st0" d="M-431.2,168.3c-5.1,0-9.3,4.1-9.3,9.3c0,5.1,4.1,9.3,9.3,9.3c5.1,0,9.3-4.1,9.3-9.3
		C-422,172.4-426.1,168.3-431.2,168.3z M-431.2,185.8c-4.6,0-8.3-3.7-8.3-8.3c0-4.5,3.7-8.3,8.3-8.3c4.5,0,8.3,3.7,8.3,8.3
		C-423,182.1-426.7,185.8-431.2,185.8z"/>
	<path class="st0" d="M-431.2,172.5c-2.8,0-5,2.2-5,5c0,2.8,2.2,5,5,5c2.8,0,5-2.2,5-5C-426.2,174.7-428.4,172.5-431.2,172.5z
		 M-431.2,181.5c-2.2,0-4-1.8-4-4s1.8-4,4-4s4,1.8,4,4S-429,181.5-431.2,181.5z"/>
	<path class="st0" d="M-415.9,167.2h-3.3c-0.9,0-1.7,0.7-1.7,1.7c0,0.9,0.7,1.7,1.7,1.7h3.3c0.9,0,1.7-0.7,1.7-1.7
		C-414.2,168-415,167.2-415.9,167.2z M-415.9,169.5h-3.3c-0.4,0-0.7-0.3-0.7-0.7s0.3-0.7,0.7-0.7h3.3c0.4,0,0.7,0.3,0.7,0.7
		S-415.5,169.5-415.9,169.5z"/>
</g>
</svg>
