<?xml version="1.0" encoding="utf-8"?>
<!-- Generator: Adobe Illustrator 19.0.0, SVG Export Plug-In . SVG Version: 6.00 Build 0)  -->
<svg version="1.1" id="Layer_1" xmlns="http://www.w3.org/2000/svg" xmlns:xlink="http://www.w3.org/1999/xlink" x="0px" y="0px"
	 viewBox="-137 139 24 24" style="enable-background:new -137 139 24 24;" xml:space="preserve">
<style type="text/css">
	.st0{fill:none;stroke:#507274;stroke-width:0.75;stroke-linecap:round;stroke-linejoin:round;}
</style>
<title></title>
<g id="Wordpress">
	<g id="_Group_">
		<g id="_Group_2">
			<line id="_Path_" class="st0" x1="-126.8" y1="146.5" x2="-122" y2="160"/>
			<line id="_Path_2" class="st0" x1="-123.9" y1="146.5" x2="-120.3" y2="157.5"/>
			<line id="_Path_3" class="st0" x1="-133.4" y1="146.5" x2="-128.6" y2="159.8"/>
			<line id="_Path_4" class="st0" x1="-130.5" y1="146.5" x2="-127.1" y2="157.2"/>
			<path id="_Path_5" class="st0" d="M-121,159.6c0,0,2.2-6.7,3-9.4s0.8-4.2,0.4-5c-0.3-0.7-0.9-1.1-1.6-1.2c-0.8,0-1.2,0.4-1.2,1.6
				c0,1.2,2.7,3.7,2.1,5.7"/>
			<line id="_Path_6" class="st0" x1="-128.1" y1="160" x2="-125" y2="151.5"/>
			<line id="_Path_7" class="st0" x1="-127.5" y1="146.5" x2="-123" y2="146.5"/>
			<line id="_Path_8" class="st0" x1="-133.4" y1="146.5" x2="-129.5" y2="146.5"/>
		</g>
		<circle id="_Path_9" class="st0" cx="-125" cy="151" r="11.5"/>
		<circle id="_Path_10" class="st0" cx="-125" cy="151" r="9.5"/>
	</g>
</g>
</svg>
