<?xml version="1.0" encoding="utf-8"?>
<!-- Generator: Adobe Illustrator 19.0.0, SVG Export Plug-In . SVG Version: 6.00 Build 0)  -->
<svg version="1.1" id="Layer_1" xmlns="http://www.w3.org/2000/svg" xmlns:xlink="http://www.w3.org/1999/xlink" x="0px" y="0px"
	 viewBox="-463 160 32 32" style="enable-background:new -463 160 32 32;" xml:space="preserve">
<style type="text/css">
	.st0{fill:#507274;}
</style>
<g>
	<path class="st0" d="M-434.6,161.4c0.1-0.1,0.2-0.3,0.1-0.4c0-0.2-0.1-0.3-0.3-0.4c-2.3-1.1-5-0.6-6.8,1.2
		c-1.7,1.7-2.3,4.4-1.5,6.6l-11.5,11.5c-0.6-0.2-1.3-0.3-2-0.3c-1.7,0-3.4,0.7-4.6,1.9c-1.8,1.8-2.3,4.4-1.3,6.7
		c0.1,0.2,0.2,0.3,0.4,0.3c0.2,0,0.3,0,0.4-0.1l3.5-3.5c0.2-0.2,0.6-0.3,0.8-0.1l1.5,1.6c0.2,0.2,0.2,0.6,0,0.8l-3.5,3.5
		c-0.1,0.1-0.2,0.3-0.1,0.4c0,0.2,0.1,0.3,0.3,0.4c0.8,0.4,1.7,0.6,2.6,0.6c1.6,0,3.1-0.6,4.2-1.8c1.7-1.7,2.3-4.4,1.5-6.6
		l11.5-11.5c0.6,0.2,1.3,0.3,2,0.3c1.7,0,3.4-0.7,4.6-1.9c1.8-1.8,2.3-4.4,1.3-6.7c-0.1-0.2-0.2-0.3-0.4-0.3c-0.2,0-0.3,0-0.4,0.1
		l-3.5,3.5c-0.2,0.2-0.6,0.2-0.8,0l-1.5-1.5c-0.2-0.2-0.2-0.6,0-0.8L-434.6,161.4z M-438.9,166.4l1.5,1.5c0.6,0.6,1.6,0.6,2.2,0
		l2.9-2.9c0.5,1.7,0,3.6-1.3,4.9c-1,1-2.4,1.6-3.9,1.6c-0.7,0-1.3-0.1-1.9-0.4c-0.2-0.1-0.4,0-0.5,0.1l-12,12
		c-0.1,0.1-0.2,0.4-0.1,0.5c0.8,1.9,0.3,4.4-1.2,5.9c-1.3,1.3-3.2,1.8-5,1.3l2.9-3c0.6-0.6,0.6-1.6,0-2.2l-1.5-1.6
		c-0.6-0.6-1.6-0.5-2.2,0.1l-2.9,2.9c-0.5-1.7,0-3.6,1.3-4.9c1-1,2.4-1.6,3.8-1.6c0.7,0,1.3,0.1,1.9,0.4c0.2,0.1,0.4,0,0.5-0.1
		l12-12c0.1-0.1,0.2-0.4,0.1-0.5c-0.8-1.9-0.3-4.4,1.2-5.9c1.3-1.3,3.2-1.8,5-1.3l-3,3C-439.5,164.8-439.5,165.7-438.9,166.4z"/>
	<path class="st0" d="M-433.8,190.6c-0.2,0.2-0.6,0.2-0.8,0l-10-10c-0.2-0.2-0.5-0.2-0.7,0c-0.2,0.2-0.2,0.5,0,0.7l10,10
		c0.3,0.3,0.7,0.5,1.1,0.5l0,0c0.4,0,0.8-0.2,1.1-0.5l1.4-1.5c0.6-0.6,0.6-1.6,0-2.2l-10-10c-0.2-0.2-0.5-0.2-0.7,0
		c-0.2,0.2-0.2,0.5,0,0.7l10,10c0.2,0.2,0.2,0.6,0,0.8L-433.8,190.6z"/>
	<path class="st0" d="M-457.1,163.1l-3-3c-0.2-0.2-0.5-0.2-0.7,0l-2,2c-0.2,0.2-0.2,0.5,0,0.7l3,3c0.1,0.1,0.2,0.1,0.4,0.1
		s0.3,0,0.4-0.1l0.6-0.6l7.6,7.6c0.1,0.1,0.2,0.1,0.4,0.1s0.3,0,0.4-0.1c0.2-0.2,0.2-0.5,0-0.7l-7.6-7.6l0.6-0.6
		C-457,163.7-457,163.3-457.1,163.1z M-459.5,164.8l-2.3-2.3l1.3-1.3l2.3,2.3L-459.5,164.8z"/>
</g>
</svg>
