<?xml version="1.0" encoding="utf-8"?>
<!-- Generator: Adobe Illustrator 19.0.0, SVG Export Plug-In . SVG Version: 6.00 Build 0)  -->
<svg version="1.1" id="Layer_1" xmlns="http://www.w3.org/2000/svg" xmlns:xlink="http://www.w3.org/1999/xlink" x="0px" y="0px"
	 viewBox="-455 152 48 48" style="enable-background:new -455 152 48 48;" xml:space="preserve">
<style type="text/css">
	.st0{fill:#507274;}
</style>
<g>
	<path class="st0" d="M-431.1,167.6c-4.7,0-8.5,3.8-8.5,8.5s3.8,8.5,8.5,8.5c4.7,0,8.5-3.8,8.5-8.5
		C-422.6,171.4-426.4,167.6-431.1,167.6z M-431.1,183.7c-4.1,0-7.5-3.4-7.5-7.5c0-4.1,3.4-7.5,7.5-7.5c4.1,0,7.5,3.4,7.5,7.5
		C-423.6,180.3-427,183.7-431.1,183.7z"/>
	<path class="st0" d="M-409.6,181.4l-5.3-3.1c0-1,0-1.8,0-2.6c0-0.6,0-1.2,0-1.9l5.3-3.1c0.8-0.5,1.1-1.5,0.6-2.3l-4.4-7.6
		c-0.4-0.8-1.5-1.1-2.3-0.6l-5.3,3.1c-0.7-0.4-1.2-0.7-1.7-1c-0.7-0.4-1.3-0.8-2.3-1.3v-6.1c0-0.9-0.8-1.7-1.7-1.7h-8.7
		c-0.9,0-1.7,0.8-1.7,1.7v5.7c-1.6,1.2-3.3,2.3-4,2.8l-5.2-3c-0.8-0.4-1.8-0.2-2.3,0.6l-4.4,7.6c-0.5,0.8-0.2,1.8,0.6,2.3l5,2.8
		c0,2,0,4.2,0,5l-5,2.9c-0.8,0.5-1.1,1.5-0.6,2.3l4.4,7.6c0.4,0.8,1.5,1.1,2.3,0.6l5.2-3c1.5,1,3.3,2,4,2.4v6c0,0.9,0.7,1.7,1.7,1.7
		h8.7c0.9,0,1.7-0.8,1.7-1.7v-6c0.6-0.3,2.1-1.1,4-2.4l5.2,3c0.8,0.4,1.8,0.2,2.3-0.6l4.4-7.6C-408.6,182.9-408.8,181.9-409.6,181.4
		z M-409.9,183.2l-4.4,7.6c-0.2,0.3-0.6,0.4-0.9,0.2l-5.5-3.2c-0.2-0.1-0.4-0.1-0.5,0c-2.4,1.7-4.4,2.6-4.4,2.6
		c-0.2,0.1-0.3,0.3-0.3,0.5v6.3c0,0.4-0.3,0.7-0.7,0.7h-8.7c-0.4,0-0.7-0.3-0.7-0.7V191c0-0.2-0.1-0.4-0.3-0.4c0,0-2.5-1.3-4.4-2.6
		c-0.2-0.1-0.4-0.2-0.6-0.1l-5.5,3.2c-0.3,0.2-0.7,0.1-0.9-0.2l-4.4-7.6c-0.2-0.3-0.1-0.7,0.2-0.9l5.2-3c0.2-0.1,0.3-0.3,0.3-0.4
		c0,0,0-3.1,0-5.6c0-0.2-0.1-0.4-0.3-0.4l-5.2-3c-0.3-0.2-0.4-0.6-0.2-0.9l4.4-7.6c0.2-0.3,0.6-0.4,0.9-0.2l5.5,3.2
		c0.2,0.1,0.4,0.1,0.5,0c0,0,2.5-1.6,4.5-3.1c0.1-0.1,0.2-0.2,0.2-0.4v-5.9c0-0.4,0.3-0.7,0.7-0.7h8.7c0.4,0,0.7,0.3,0.7,0.7v6.4
		c0,0.2,0.1,0.4,0.3,0.4c1.1,0.6,1.8,1,2.5,1.4c0.6,0.3,1.2,0.7,1.9,1.1c0.2,0.1,0.4,0.1,0.5,0l5.5-3.2c0.3-0.2,0.7-0.1,0.9,0.2
		l4.4,7.6c0.2,0.3,0.1,0.7-0.2,0.9l-5.5,3.2c-0.2,0.1-0.2,0.3-0.2,0.4c0,0.9,0,1.6,0,2.3c0,0.9,0,1.7,0,2.9c0,0.1,0,0.1,0,0.2
		c0,0.1,0.1,0.2,0.2,0.3l5.5,3.2C-409.8,182.5-409.7,182.9-409.9,183.2z"/>
</g>
</svg>
