<?xml version="1.0" encoding="utf-8"?>
<!-- Generator: Adobe Illustrator 19.0.0, SVG Export Plug-In . SVG Version: 6.00 Build 0)  -->
<svg version="1.1" id="Layer_1" xmlns="http://www.w3.org/2000/svg" xmlns:xlink="http://www.w3.org/1999/xlink" x="0px" y="0px"
	 viewBox="-455 152 48 48" style="enable-background:new -455 152 48 48;" xml:space="preserve">
<style type="text/css">
	.st0{fill:#507274;}
</style>
<g>
	<path class="st0" d="M-447.6,185.3c-0.2-0.1-0.4-0.1-0.5,0.1c-0.1,0.1-0.2,0.3-0.2,0.5l3,11.9c0,0.1,0.1,0.2,0.2,0.3
		c0.1,0,0.2,0.1,0.3,0.1c0,0,0.1,0,0.1,0l11.8-3c0.2,0,0.3-0.2,0.4-0.4c0-0.2,0-0.4-0.2-0.5C-432.8,194.2-447.5,185.3-447.6,185.3z
		 M-444.5,197l-2.5-10.2c2.7,1.6,10,6.1,12.7,7.7L-444.5,197z"/>
	<path class="st0" d="M-413.6,163.5c-0.1-0.4-0.3-0.7-0.7-0.9l-13.7-8.3c-0.3-0.2-0.7-0.3-1.1-0.2c-0.3,0.1-0.6,0.3-0.9,0.7
		l-3.7,6.1l0,0l0,0c-1.8,3-3.9,6.6-6.1,10.3c-2.2,3.7-4.4,7.4-6.2,10.5c-0.1,0.2-0.1,0.5,0.2,0.7l4,2.4c4.2,2.6,10.4,6.2,11.2,6.7
		c0.1,0,0.2,0.1,0.3,0.1c0,0,0.1,0,0.1,0c0.1,0,0.2-0.1,0.3-0.2c1.8-3.1,4.1-6.7,6.3-10.4c2.2-3.6,4.4-7.2,6.2-10.2c0,0,0,0,0,0
		l3.6-6.1C-413.6,164.3-413.5,163.9-413.6,163.5z M-444.8,181.8c1.8-3,3.9-6.5,6-10.1c2-3.5,4.1-6.9,5.8-9.9
		c0.8,0.5,2.4,1.5,4.3,2.6l-11.8,19.9c-0.2-0.1-0.5-0.3-0.7-0.4L-444.8,181.8z M-439.7,184.9l11.8-19.9c0.7,0.4,1.3,0.8,2,1.2
		c0.8,0.5,1.6,1,2.4,1.5l-12.1,19.7C-436.9,186.5-438.4,185.7-439.7,184.9z M-424.5,180.5c-2.1,3.5-4.2,7-6,10
		c-0.8-0.5-2.4-1.4-4.2-2.6l12.1-19.7c1.8,1.1,3.3,2,4.1,2.5C-420.3,173.6-422.4,177-424.5,180.5z M-414.7,164.2l-3.4,5.6
		c-1.2-0.7-4.3-2.6-7.3-4.5c-3-1.8-6-3.6-7.2-4.3l3.4-5.7c0-0.1,0.1-0.2,0.2-0.2c0.1,0,0.2,0,0.3,0.1l13.7,8.3
		c0.1,0.1,0.2,0.2,0.2,0.3C-414.6,163.9-414.6,164-414.7,164.2z"/>
</g>
</svg>
