<?xml version="1.0" encoding="utf-8"?>
<!-- Generator: Adobe Illustrator 19.0.0, SVG Export Plug-In . SVG Version: 6.00 Build 0)  -->
<svg version="1.1" id="Layer_1" xmlns="http://www.w3.org/2000/svg" xmlns:xlink="http://www.w3.org/1999/xlink" x="0px" y="0px"
	 viewBox="-455 152 48 48" style="enable-background:new -455 152 48 48;" xml:space="preserve">
<style type="text/css">
	.st0{fill:#507274;}
</style>
<g>
	<path class="st0" d="M-411.2,158.3h-39.7c-1.1,0-2,0.9-2,2v25.7c0,1.1,0.9,2,2,2h39.7c1.1,0,2-0.9,2-2v-25.7
		C-409.2,159.2-410.1,158.3-411.2,158.3z M-410.2,185.9c0,0.6-0.4,1-1,1h-39.7c-0.6,0-1-0.4-1-1v-25.7c0-0.6,0.4-1,1-1h39.7
		c0.6,0,1,0.4,1,1V185.9z"/>
	<path class="st0" d="M-425.6,190.7c0.3,0,0.5-0.2,0.5-0.5s-0.2-0.5-0.5-0.5h-10.9c-0.3,0-0.5,0.2-0.5,0.5s0.2,0.5,0.5,0.5H-425.6z"
		/>
	<path class="st0" d="M-414.6,192.7h-32.8c-0.3,0-0.5,0.2-0.5,0.5s0.2,0.5,0.5,0.5h32.8c0.3,0,0.5-0.2,0.5-0.5
		S-414.3,192.7-414.6,192.7z"/>
</g>
</svg>
