<?xml version="1.0" encoding="utf-8"?>
<!-- Generator: Adobe Illustrator 19.0.0, SVG Export Plug-In . SVG Version: 6.00 Build 0)  -->
<svg version="1.1" id="Layer_1" xmlns="http://www.w3.org/2000/svg" xmlns:xlink="http://www.w3.org/1999/xlink" x="0px" y="0px"
	 viewBox="-455 152 48 48" style="enable-background:new -455 152 48 48;" xml:space="preserve">
<style type="text/css">
	.st0{fill:#507274;}
</style>
<g>
	<path class="st0" d="M-417.9,193.9c-0.3,0-0.5,0.2-0.5,0.5c0,0.2-0.2,0.3-0.3,0.3l-5.1,0c0,0,0,0,0,0c-0.2,0-0.3-0.2-0.3-0.3l0-2.4
		c0-0.2,0.2-0.3,0.3-0.3l5.1,0h0c0.2,0,0.3,0.2,0.3,0.3c0,0.3,0.2,0.5,0.5,0.5c0.3,0,0.5-0.2,0.5-0.5c0-0.7-0.6-1.3-1.3-1.3
		c0,0,0,0,0,0l-5.1,0c-0.7,0-1.3,0.6-1.3,1.3l0,2.4c0,0.7,0.6,1.3,1.3,1.3c0,0,0,0,0,0l5.1,0c0.7,0,1.3-0.6,1.3-1.3
		C-417.4,194.1-417.7,193.9-417.9,193.9z"/>
	<path class="st0" d="M-409.2,191.9c0-0.4-0.1-0.7-0.4-0.9s-0.5-0.4-0.9-0.4l-5.1,0c-0.7,0-1.3,0.6-1.3,1.3c0,0.3,0.2,0.5,0.5,0.5
		c0.3,0,0.5-0.2,0.5-0.5c0-0.2,0.2-0.3,0.3-0.3l5.1,0c0.1,0,0.2,0,0.2,0.1c0.1,0.1,0.1,0.2,0.1,0.2l0,2.4c0,0.2-0.2,0.3-0.3,0.3
		l-5.1,0c-0.2,0-0.3-0.2-0.3-0.3c0-0.3-0.2-0.5-0.5-0.5c-0.3,0-0.5,0.2-0.5,0.5c0,0.7,0.6,1.3,1.3,1.3l5.1,0c0.7,0,1.3-0.6,1.3-1.3
		L-409.2,191.9z"/>
	<path class="st0" d="M-419.8,192.6c-0.3,0-0.5,0.2-0.5,0.5c0,0.3,0.2,0.5,0.5,0.5l5,0.1c0,0,0,0,0,0c0.3,0,0.5-0.2,0.5-0.5
		c0-0.3-0.2-0.5-0.5-0.5L-419.8,192.6C-419.8,192.6-419.8,192.6-419.8,192.6z"/>
	<path class="st0" d="M-428.8,196.3h-21.4c-0.6,0-1-0.2-1.3-0.4c-0.5-0.5-0.4-1.3-0.4-1.3v-37.1c0-0.2,0.1-1.7,1.5-1.7h25.3v8
		c0,0.3,0.2,0.5,0.5,0.5h8v21.8c0,0.3,0.2,0.5,0.5,0.5s0.5-0.2,0.5-0.5v-22.3l0,0v0c0-0.1,0-0.1,0-0.2c0,0,0,0,0,0
		c0-0.1-0.1-0.1-0.1-0.1c0,0,0,0,0,0c0,0-0.1-0.1-0.1-0.1l-8.3-8.3l0,0c0,0,0-0.1-0.1-0.1l0,0c0,0,0,0,0,0c0,0-0.1-0.1-0.1-0.1
		c0,0,0,0,0,0c-0.1,0-0.1,0-0.2,0h-25.8c-2,0-2.5,1.7-2.5,2.7l0,37c0,0.1-0.1,1.2,0.6,2.1c0.5,0.5,1.1,0.8,2,0.8h21.4
		c0.3,0,0.5-0.2,0.5-0.5C-428.3,196.5-428.5,196.3-428.8,196.3z M-424,156.5l6.8,6.8h-6.8C-424,163.3-424,156.5-424,156.5z"/>
	<path class="st0" d="M-425.7,186.3H-445c-0.3,0-0.5,0.2-0.5,0.5c0,0.3,0.2,0.5,0.5,0.5h19.4c0.3,0,0.5-0.2,0.5-0.5
		C-425.2,186.5-425.4,186.3-425.7,186.3z"/>
	<path class="st0" d="M-425.7,178.3H-445c-0.3,0-0.5,0.2-0.5,0.5c0,0.3,0.2,0.5,0.5,0.5h19.4c0.3,0,0.5-0.2,0.5-0.5
		C-425.2,178.5-425.4,178.3-425.7,178.3z"/>
	<path class="st0" d="M-425.7,170.6H-445c-0.3,0-0.5,0.2-0.5,0.5c0,0.3,0.2,0.5,0.5,0.5h19.4c0.3,0,0.5-0.2,0.5-0.5
		C-425.2,170.9-425.4,170.6-425.7,170.6z"/>
</g>
</svg>
