<?xml version="1.0" encoding="utf-8"?>
<!-- Generator: Adobe Illustrator 19.0.0, SVG Export Plug-In . SVG Version: 6.00 Build 0)  -->
<svg version="1.1" id="Layer_1" xmlns="http://www.w3.org/2000/svg" xmlns:xlink="http://www.w3.org/1999/xlink" x="0px" y="0px"
	 viewBox="-455 152 48 48" style="enable-background:new -455 152 48 48;" xml:space="preserve">
<style type="text/css">
	.st0{fill:#507274;}
</style>
<g>
	<path class="st0" d="M-421.8,179l-7-6.2l14.6-10.7c0,0.1,0.1,0.2,0.1,0.3v13.4c0,0.3,0.2,0.5,0.5,0.5s0.5-0.2,0.5-0.5v-13.4
		c0-0.5-0.2-0.9-0.5-1.3c0,0,0,0,0,0c0,0,0,0,0,0c-0.4-0.4-0.9-0.7-1.5-0.7H-452c-0.4,0-0.9,0.1-1.2,0.4c0,0,0,0-0.1,0
		c-0.5,0.4-0.8,1-0.8,1.7v23.4c0,1.1,0.9,2.1,2.1,2.1h27.7c0.3,0,0.5-0.2,0.5-0.5s-0.2-0.5-0.5-0.5H-452c-0.2,0-0.3,0-0.5-0.1
		l15.6-13.3c0.6,0.4,1.9,1,3.5,1c1.1,0,2.3-0.3,3.6-1.1l0,0l7.1,6.4c0.1,0.1,0.2,0.1,0.3,0.1c0.1,0,0.3-0.1,0.4-0.2
		C-421.6,179.5-421.6,179.2-421.8,179z M-453.1,185.8v-23.4c0-0.2,0.1-0.4,0.2-0.6l15.2,11.1l-15.3,13
		C-453,185.9-453.1,185.8-453.1,185.8z M-436.6,172.5l-15.2-11.2h36.6c0.1,0,0.2,0,0.3,0.1l-15.4,11.3
		C-433.7,174.8-436.5,172.6-436.6,172.5z"/>
	<path class="st0" d="M-414.8,178.2c-3.9,0-7.1,3.2-7.1,7.1c0,2.1,0.9,4,2.4,5.3l0,0c1.3,1.1,2.9,1.8,4.7,1.8c3.9,0,7.1-3.2,7.1-7.1
		C-407.7,181.4-410.9,178.2-414.8,178.2z M-416.6,179.5C-416.6,179.6-416.6,179.6-416.6,179.5l-0.1,0.2c-0.1,0.2,0,0.3,0.1,0.5
		c-0.1,0-0.3,0.1-0.4,0.1c0-0.1,0-0.2,0-0.4c0-0.1-0.1-0.2-0.1-0.3C-417,179.6-416.8,179.5-416.6,179.5
		C-416.6,179.5-416.6,179.5-416.6,179.5z M-418.2,180.2c-0.1,0.1-0.2,0.3-0.1,0.5c0.1,0.2,0.3,0.6,1,0.6c0.6,0,1.4-0.3,1.4-0.4
		c0,0,0.1-0.1,0.1-0.1c0.3-0.3,0.3-0.5,0.3-0.7c0-0.1,0-0.1,0-0.2c0,0,0,0,0,0c0.1-0.1,0.2-0.3,0.1-0.4c0-0.1-0.1-0.2-0.2-0.3
		c0.3,0,0.5-0.1,0.8-0.1c2.9,0,5.4,2.1,6,4.8c0,0,0,0,0,0c-0.3-0.4-0.7-0.5-0.9-0.5c-0.5,0-0.8,0.4-0.9,0.6
		c-1.2,0.8-1.4,1.2-1.3,1.5c0,0.3,0,0.5-0.1,0.7c-0.2-0.4-0.3-1-0.4-1.4c-0.2-0.6-0.2-0.8-0.2-0.8c0-0.2-0.2-0.4-0.3-0.5
		c-0.2-0.1-0.4-0.1-0.6,0c-0.1-0.1-0.2-0.1-0.3-0.1l-1-0.5c-0.1-0.1-0.2-0.3-0.3-0.4c-0.1-0.1-0.4-0.4-0.4-0.5
		c0-0.2-0.2-0.3-0.3-0.4c-0.3-0.2-0.7,0-1.3,0.3c-0.1,0.1-0.2,0.1-0.3,0.1c-0.4,0.2-0.6,0.5-0.5,0.9c0,0.6,0.7,1.3,1.3,1.7
		c-0.6,0.4-1,0.5-1.2,0.5c-0.2,0-0.3-0.1-0.3,0c-0.4-0.3-0.8-2.4-1-4.1c0,0,0,0,0,0C-418.8,180.7-418.5,180.4-418.2,180.2z
		 M-420.9,185.5c0.3,0.6,0.9,1.9,1.7,2.2c0.1,0,0.2,0.1,0.3,0c0.3,0,0.7,0,0.9,0c-0.1,0.1-0.2,0.4-0.6,0.6c-0.1,0-0.6,0.3-1,0.8
		C-420.3,188.1-420.8,186.9-420.9,185.5z M-414.8,191.4c-1.5,0-2.9-0.6-4-1.5c0-0.1,0-0.1,0-0.2c0.1-0.2,0.4-0.4,0.6-0.5
		c0.8-0.4,1.1-1.1,1.2-1.3c0.1-0.3,0.1-0.6-0.1-0.8c-0.4-0.4-1.2-0.4-1.8-0.4c-0.4-0.3-0.9-1.2-1.1-1.8v-2.8c0,0,0-0.1,0-0.1
		c0.2,1.3,0.6,3.2,1.3,3.8c0,0,0.3,0.2,0.9,0.2c0.5,0,1.3-0.2,2.3-1.1c0.1-0.1,0.2-0.2,0.2-0.4c0-0.2-0.1-0.4-0.3-0.5
		c-0.4-0.2-1.1-0.9-1.3-1.2c0.1,0,0.2-0.1,0.2-0.1c0.1,0,0.2-0.1,0.3-0.2c0.1,0.2,0.3,0.3,0.4,0.5c0.1,0.1,0.2,0.3,0.3,0.4
		c0,0.1,0.1,0.2,0.2,0.2l1.4,0.8c0.1,0.1,0.3,0.1,0.5,0.2c0,0.1,0.1,0.3,0.1,0.5c0,0.1,0.3,1.3,0.7,1.9c0.1,0.4,0.4,0.6,0.7,0.6
		c0.3,0,0.5-0.2,0.7-0.5c0.2-0.2,0.5-0.8,0.4-1.6c0.1-0.1,0.3-0.3,0.9-0.8c0,0,0.1-0.1,0.2-0.2c0-0.1,0.1-0.1,0.1-0.2
		c0,0,0,0,0.1,0.1c0.5,0.9,0.8,1.2,1,1.3C-409,189-411.6,191.4-414.8,191.4z"/>
</g>
</svg>
