<?xml version="1.0" encoding="utf-8"?>
<!-- Generator: Adobe Illustrator 19.0.0, SVG Export Plug-In . SVG Version: 6.00 Build 0)  -->
<svg version="1.1" id="Layer_1" xmlns="http://www.w3.org/2000/svg" xmlns:xlink="http://www.w3.org/1999/xlink" x="0px" y="0px"
	 viewBox="-125 127 48 48" style="enable-background:new -125 127 48 48;" xml:space="preserve">
<style type="text/css">
	.down0{fill:#507274;stroke:#507274;stroke-miterlimit:10;}
</style>
<path class="down0" d="M-101.5,131.2v38.7l-20.1-16.4c-0.2-0.2-0.5-0.1-0.7,0.1c-0.2,0.2-0.1,0.5,0.1,0.7l20.8,17
	c0.1,0.1,0.2,0.1,0.3,0.1h0.2c0.1,0,0.2,0,0.3-0.1l20.8-17c0.1-0.1,0.2-0.2,0.2-0.4c0-0.1,0-0.2-0.1-0.3c-0.2-0.2-0.5-0.2-0.7-0.1
	l-20.1,16.4v-38.7c0-0.3-0.2-0.5-0.5-0.5C-101.3,130.7-101.5,130.9-101.5,131.2z"/>
</svg>
