<?xml version="1.0" encoding="utf-8"?>
<!-- Generator: Adobe Illustrator 19.0.0, SVG Export Plug-In . SVG Version: 6.00 Build 0)  -->
<svg version="1.1" id="Layer_1" xmlns="http://www.w3.org/2000/svg" xmlns:xlink="http://www.w3.org/1999/xlink" x="0px" y="0px"
	 viewBox="-455 257 48 48" style="enable-background:new -455 257 48 48;" xml:space="preserve">
<style type="text/css">
	"bottom-menu{fill:#293249;}
</style>
<path class="bottom-menu" d="M-410.9,275C-410.9,275-410.9,274.9-410.9,275C-410.9,274.9-410.9,274.9-410.9,275
	C-410.9,274.9-411,274.9-410.9,275l-15.7-12.9c-1.1-0.8-2.4-1.2-3.7-1.2c-2.2,0-3.7,1.1-3.8,1.2l-16.5,12.6
	c-0.1,0.1-0.8,0.8-0.8,1.6v23.4c0,1.1,0.9,2.1,2.1,2.1h36.8c1.1,0,2.1-0.9,2.1-2.1v-23.4C-410.4,275.6-410.7,275.1-410.9,275z
	 M-426.1,286.7l14.7-10.7c0,0.1,0,0.2,0,0.3v23.4c0,0,0,0.1,0,0.1L-426.1,286.7z M-433.5,262.9c0,0,1.4-1,3.2-1c1.1,0,2.1,0.3,3.1,1
	l15.1,12.4l-15.4,11.3c-3.4,2.2-6.2,0-6.4-0.1l-15.5-11.3L-433.5,262.9z M-450.3,299.9c0,0,0-0.1,0-0.1v-23.4c0-0.2,0.1-0.4,0.2-0.5
	l15.2,11.1L-450.3,299.9z M-449.3,300.8c-0.2,0-0.3,0-0.5-0.1l15.6-13.3c0.6,0.4,1.9,1,3.5,1c1.1,0,2.3-0.3,3.6-1.1l0,0l15,13.3
	c-0.2,0.1-0.3,0.1-0.5,0.1C-412.5,300.8-449.3,300.8-449.3,300.8z"/>
</svg>
