<?xml version="1.0" encoding="utf-8"?>
<!-- Generator: Adobe Illustrator 19.0.0, SVG Export Plug-In . SVG Version: 6.00 Build 0)  -->
<svg version="1.1" id="Layer_1" xmlns="http://www.w3.org/2000/svg" xmlns:xlink="http://www.w3.org/1999/xlink" x="0px" y="0px"
	 viewBox="-455 152 48 48" style="enable-background:new -455 152 48 48;" xml:space="preserve">
<style type="text/css">
	.st0{fill:#FFFFFF;}
</style>
<g>
	<path class="st0" d="M-431,156.1c-11,0-20,9-20,20c0,11,9,20,20,20s20-9,20-20C-411,165.1-420,156.1-431,156.1z M-431,195
		c-10.4,0-19-8.5-19-18.9c0-10.4,8.5-19,19-19s19,8.5,19,19C-412,186.5-420.6,195-431,195z"/>
	<path class="st0" d="M-423.2,168.3c-0.2-0.2-0.5-0.2-0.7,0l-7.1,7.1l-7.1-7.1c-0.2-0.2-0.5-0.2-0.7,0c-0.2,0.2-0.2,0.5,0,0.7
		l7.1,7.1l-7.1,7.1c-0.2,0.2-0.2,0.5,0,0.7c0.1,0.1,0.2,0.1,0.4,0.1c0.1,0,0.3,0,0.4-0.1l7.1-7.1l7.1,7.1c0.1,0.1,0.2,0.1,0.4,0.1
		c0.1,0,0.3,0,0.4-0.1c0.2-0.2,0.2-0.5,0-0.7l-7.1-7.1l7.1-7.1C-423,168.8-423,168.5-423.2,168.3z"/>
</g>
</svg>
