<?xml version="1.0" encoding="utf-8"?>
<!-- Generator: Adobe Illustrator 19.0.0, SVG Export Plug-In . SVG Version: 6.00 Build 0)  -->
<svg version="1.1" id="Livello_1" xmlns="http://www.w3.org/2000/svg" xmlns:xlink="http://www.w3.org/1999/xlink" x="0px" y="0px"
	 viewBox="-99 101 100 100" style="enable-background:new -99 101 100 100;" xml:space="preserve">
<style type="text/css">
	.st0{fill:#093249;stroke:#293249;stroke-width:0.5;stroke-miterlimit:10;}
</style>
<path class="st0" d="M-20.9,116.4h-56.3c-3.6,0-6.5,2.9-6.5,6.5v56.3c0,3.6,2.9,6.5,6.5,6.5h30.5c0.3,0,0.5-0.2,0.5-0.5v-26.4
	c0-0.3-0.2-0.5-0.5-0.5h-8.4v-9.3h8.4c0.3,0,0.5-0.2,0.5-0.5v-7.6c0-8.2,4.8-13.1,12.8-13.1c3.2,0,6.1,0.2,7.5,0.4v8.3l-5,0
	c-4.9,0-5.6,2.7-5.6,5.5v6.6c0,0.3,0.2,0.5,0.5,0.5h9.6l-1.2,9.3H-36c-0.3,0-0.5,0.2-0.5,0.5v26.4c0,0.3,0.2,0.5,0.5,0.5h15.2
	c3.6,0,6.5-2.9,6.5-6.5v-56.3C-14.4,119.3-17.3,116.4-20.9,116.4z M-15.4,179.1c0,3-2.5,5.5-5.5,5.5h-14.7v-25.4h8.4
	c0.3,0,0.5-0.2,0.5-0.4l1.3-10.3c0-0.1,0-0.3-0.1-0.4s-0.2-0.2-0.4-0.2h-9.7v-6.1c0-2.9,0.8-4.5,4.6-4.5l5.5,0
	c0.3,0,0.5-0.2,0.5-0.5v-9.2c0-0.3-0.2-0.5-0.4-0.5c-1-0.1-4.3-0.4-8-0.4c-8.5,0-13.8,5.4-13.8,14.1v7.1h-8.4
	c-0.3,0-0.5,0.2-0.5,0.5v10.3c0,0.3,0.2,0.5,0.5,0.5h8.4v25.4h-30c-3,0-5.5-2.5-5.5-5.5v-56.3c0-3,2.5-5.5,5.5-5.5h56.3
	c3,0,5.5,2.5,5.5,5.5V179.1z"/>
</svg>
