<?xml version="1.0" encoding="utf-8"?>
<!-- Generator: Adobe Illustrator 19.0.0, SVG Export Plug-In . SVG Version: 6.00 Build 0)  -->
<svg version="1.1" id="Livello_1" xmlns="http://www.w3.org/2000/svg" xmlns:xlink="http://www.w3.org/1999/xlink" x="0px" y="0px"
	 viewBox="-99 101 100 100" style="enable-background:new -99 101 100 100;" xml:space="preserve">
<style type="text/css">
	.bottom-menu{fill:#093249;stroke:#293249;stroke-width:0.5;stroke-miterlimit:10;}
</style>
<path class="bottom-menu" d="M-22.1,124.3h-8.1c-1.7,0-3.1,1.4-3.1,3.1v8.1c0,1.7,1.4,3.1,3.1,3.1h8.1c1.7,0,3.1-1.4,3.1-3.1v-8.1
	C-19,125.7-20.4,124.3-22.1,124.3z M-20,135.4c0,1.1-0.9,2.1-2.1,2.1h-8.1c-1.1,0-2.1-0.9-2.1-2.1v-8.1c0-1.1,0.9-2.1,2.1-2.1h8.1
	c1.1,0,2.1,0.9,2.1,2.1V135.4z"/>
<path class="bottom-menu" d="M-19.5,117.9h-56.3c-3.6,0-6.5,2.9-6.5,6.5v56.3c0,3.6,2.9,6.5,6.5,6.5h56.3c3.6,0,6.5-2.9,6.5-6.5v-56.3
	C-13,120.8-15.9,117.9-19.5,117.9z M-14,180.6c0,3-2.5,5.5-5.5,5.5h-56.3c-3,0-5.5-2.5-5.5-5.5v-32.9h20.9c-0.6,1.5-0.9,3.1-0.9,4.7
	c0,7.5,6.1,13.6,13.6,13.6s13.6-6.1,13.6-13.6c0-1.7-0.3-3.3-0.9-4.7h20.9L-14,180.6L-14,180.6z M-60.2,152.5
	c0-7,5.7-12.6,12.6-12.6s12.6,5.7,12.6,12.6s-5.7,12.6-12.6,12.6C-54.6,165.1-60.2,159.5-60.2,152.5z M-14,146.8h-21.3
	c-2.2-4.6-6.9-7.9-12.3-7.9s-10.2,3.2-12.3,7.9h-21.3v-22.4c0-3,2.5-5.5,5.5-5.5h56.3c3,0,5.5,2.5,5.5,5.5v22.4H-14z"/>
</svg>
