<?xml version="1.0" encoding="utf-8"?>
<!-- Generator: Adobe Illustrator 19.0.0, SVG Export Plug-In . SVG Version: 6.00 Build 0)  -->
<svg version="1.1" id="Livello_1" xmlns="http://www.w3.org/2000/svg" xmlns:xlink="http://www.w3.org/1999/xlink" x="0px" y="0px"
	 viewBox="-429 126 100 100" style="enable-background:new -429 126 100 100;" xml:space="preserve">
<style type="text/css">
	.st0{fill:#093249;stroke:#293249;stroke-width:2;stroke-miterlimit:10;}
</style>
<path class="st0" d="M-355.3,149.2h-8.1c-1.7,0-3.1,1.4-3.1,3.1v8.1c0,1.7,1.4,3.1,3.1,3.1h8.1c1.7,0,3.1-1.4,3.1-3.1v-8.1
	C-352.2,150.6-353.6,149.2-355.3,149.2z M-353.2,160.3c0,1.1-0.9,2.1-2.1,2.1h-8.1c-1.1,0-2.1-0.9-2.1-2.1v-8.1
	c0-1.1,0.9-2.1,2.1-2.1h8.1c1.1,0,2.1,0.9,2.1,2.1V160.3z"/>
<path class="st0" d="M-350.9,141.4h-56.3c-3.6,0-6.5,2.9-6.5,6.5v56.3c0,3.6,2.9,6.5,6.5,6.5h56.3c3.6,0,6.5-2.9,6.5-6.5v-56.3
	C-344.4,144.3-347.3,141.4-350.9,141.4z M-345.4,204.1c0,3-2.5,5.5-5.5,5.5h-56.3c-3,0-5.5-2.5-5.5-5.5v-32.9h20.9
	c-0.6,1.5-0.9,3.1-0.9,4.7c0,7.5,6.1,13.6,13.6,13.6s13.6-6.1,13.6-13.6c0-1.7-0.3-3.3-0.9-4.7h20.9V204.1z M-391.6,176
	c0-7,5.7-12.6,12.6-12.6s12.6,5.7,12.6,12.6s-5.7,12.6-12.6,12.6C-386,188.6-391.6,183-391.6,176z M-345.4,170.3h-21.3
	c-2.2-4.6-6.9-7.9-12.3-7.9s-10.2,3.2-12.3,7.9h-21.3v-22.4c0-3,2.5-5.5,5.5-5.5h56.3c3,0,5.5,2.5,5.5,5.5V170.3z"/>
</svg>
