<?xml version="1.0" encoding="utf-8"?>
<!-- Generator: Adobe Illustrator 19.0.0, SVG Export Plug-In . SVG Version: 6.00 Build 0)  -->
<svg version="1.1" id="Layer_1" xmlns="http://www.w3.org/2000/svg" xmlns:xlink="http://www.w3.org/1999/xlink" x="0px" y="0px"
	 viewBox="0 0 960 350" style="enable-background:new 0 0 960 350;" xml:space="preserve">
<style type="text/css">
	.st0{fill:none;}
	.st1{fill:#293249;}
</style>
<path class="st0" d="M739.4,169.2c0,0.9,0,1.8,0,2.7v7.6l84.8-0.1c0-3.1,0-6.5-0.1-10.2H739.4z"/>
<path class="st0" d="M396.8,159.3c-2.1-7.3-5.4-13.7-9.8-19.1s-9.9-9.8-16.6-13.1c-6.7-3.2-14.7-4.9-23.9-4.9c-8.8,0-16.4,1.7-23,5
	c-6.6,3.3-12.1,7.8-16.5,13.4c-4.5,5.6-7.8,12-10,19.3c-0.9,3-1.7,6.2-2.2,9.3H399C398.5,165.8,397.7,162.5,396.8,159.3z"/>
<path class="st0" d="M663.1,159.3c-2.1-7.3-5.4-13.7-9.8-19.1s-9.9-9.8-16.6-13.1c-6.7-3.2-14.7-4.9-23.9-4.9c-8.8,0-16.4,1.7-23,5
	c-6.6,3.3-12.1,7.8-16.5,13.4c-4.5,5.6-7.8,12-10,19.3c-0.9,3-1.7,6.2-2.2,9.3h104.2C664.8,165.8,664.1,162.5,663.1,159.3z"/>
<path class="st0" d="M560,182.5c0,7.8,1.1,15.4,3.3,22.6c2.2,7.2,5.6,13.5,10.1,19s10.1,9.8,16.8,13.1c6.7,3.2,14.5,4.9,23.4,4.9
	c8.8,0,16.4-1.6,23-4.9c6.6-3.3,12.1-7.7,16.5-13.1s7.7-11.8,9.8-19c2.2-7.2,3.3-14.7,3.3-22.6c0-1,0-1.9-0.1-2.8L560,179.6
	C560,180.6,560,181.5,560,182.5z"/>
<path class="st0" d="M561.1,169.2c-0.6,3.4-0.9,6.9-1.1,10.4l106.3-0.1c-0.1-3.5-0.4-7-1-10.3H561.1z"/>
<path class="st0" d="M124.2,181.7c0,8.7,0.8,16.5,2.5,23.4c1.7,6.9,4.5,12.8,8.3,17.7c3.9,4.9,9,8.6,15.2,11.3c6.3,2.6,14,4,23.2,4
	c6.1,0,11.6-0.8,16.3-2.4c4.8-1.6,9-3.8,12.6-6.6c3.6-2.8,6.7-6.1,9.2-9.9c2.5-3.8,4.6-8,6.2-12.5c1.6-4.5,2.8-9.3,3.5-14.4
	c0.6-4.1,0.9-8.3,1-12.5l-98.1,0.1C124.3,180.5,124.2,181.1,124.2,181.7z"/>
<path class="st0" d="M222.4,179.8c0-1,0.1-1.9,0.1-2.9c0-2.6-0.1-5.2-0.4-7.7h-96.8c-0.5,3.5-0.8,7.1-0.9,10.7L222.4,179.8z"/>
<path class="st0" d="M219.1,155.7c-2.2-6.7-5.4-12.5-9.6-17.4c-4.2-5-9.3-8.9-15.3-11.8s-12.8-4.3-20.2-4.3
	c-8.2,0-15.4,1.6-21.6,4.9c-6.2,3.2-11.4,7.6-15.5,13.1c-4.1,5.5-7.3,11.8-9.4,19c-1,3.3-1.7,6.6-2.2,10.1H222
	C221.5,164.5,220.5,160,219.1,155.7z"/>
<path class="st0" d="M293.6,182.5c0,7.8,1.1,15.4,3.3,22.6c2.2,7.2,5.6,13.5,10.1,19s10.1,9.8,16.8,13.1c6.7,3.2,14.5,4.9,23.4,4.9
	c8.8,0,16.4-1.6,23-4.9c6.6-3.3,12.1-7.7,16.5-13.1s7.7-11.8,9.8-19c2.2-7.2,3.3-14.7,3.3-22.6c0-0.9,0-1.8-0.1-2.7l-106.3,0.1
	C293.7,180.7,293.6,181.6,293.6,182.5z"/>
<path class="st0" d="M294.8,169.2c-0.6,3.5-1,7-1.1,10.6l106.3-0.1c-0.1-3.6-0.4-7.1-1-10.5H294.8z"/>
<path class="st0" d="M824,168.6c-0.1-4.1-0.1-6.1-0.1-6.2c-0.6-12.9-4.1-22.9-10.5-29.8c-6.3-6.9-15.8-10.4-28.4-10.4
	c-7.6,0-14.2,1.3-19.9,3.8c-5.7,2.6-10.5,6.1-14.3,10.5c-3.8,4.5-6.7,9.7-8.7,15.8c-1.7,5.3-2.6,10.9-2.8,16.8H824
	C824,169,824,168.8,824,168.6z"/>
<polygon class="st1" points="51.4,179.9 35.5,179.9 35.5,288.9 78.8,288.9 78.8,277 51.4,277 "/>
<polygon class="st1" points="51.4,63.7 78.7,63.7 78.7,51.7 35.5,51.7 35.5,169.2 51.4,169.2 "/>
<path class="st1" d="M222.4,139.3c-2.7-4.6-5.9-8.7-9.4-12.5c-3.5-3.8-7.4-7-11.6-9.7c-4.2-2.7-8.9-4.8-13.9-6.3
	c-5-1.5-10.4-2.3-16.3-2.3c-10.8,0-20.3,2-28.4,5.9c-8.1,3.9-14.8,9.3-20.2,16c-5.4,6.7-9.5,14.6-12.2,23.6
	c-1.5,4.9-2.5,10-3.2,15.2h17.9c0.5-3.4,1.2-6.8,2.2-10.1c2.1-7.2,5.2-13.5,9.4-19c4.1-5.5,9.3-9.8,15.5-13.1
	c6.2-3.2,13.4-4.9,21.6-4.9c7.5,0,14.2,1.4,20.2,4.3s11.1,6.8,15.3,11.8c4.2,5,7.4,10.8,9.6,17.4c1.4,4.3,2.4,8.8,2.9,13.5h17.8
	v-23.9V112h-17L222.4,139.3z"/>
<path class="st1" d="M221.3,192.3c-0.7,5.1-1.9,9.8-3.5,14.4c-1.6,4.5-3.6,8.7-6.2,12.5c-2.5,3.8-5.6,7.1-9.2,9.9
	c-3.6,2.8-7.8,5-12.6,6.6c-4.8,1.6-10.2,2.4-16.3,2.4c-9.2,0-17-1.3-23.2-4c-6.3-2.6-11.4-6.4-15.2-11.3c-3.9-4.9-6.7-10.8-8.3-17.7
	c-1.7-6.9-2.5-14.7-2.5-23.4c0-0.6,0-1.2,0-1.8l-17.8,0c0,0.9,0,1.8,0,2.8c0,10.4,1.4,19.9,4.2,28.4c2.8,8.6,6.9,15.9,12.3,21.9
	c5.4,6.1,11.9,10.8,19.7,14.2c7.7,3.4,16.5,5.1,26.4,5.1c11.8,0,22.5-2.8,31.9-8.5c9.4-5.7,16.7-14.3,21.9-25.8l-0.7,29.8
	c-0.5,17-5.4,29.6-15,37.5c-9.5,8-23.2,12-40.9,12c-8,0-15.9-0.9-23.6-2.8c-7.7-1.9-14.9-4.7-21.5-8.5l-1.6,15.9
	c6.8,3.6,14.3,6.2,22.5,7.9c8.2,1.7,16.7,2.5,25.5,2.5c10.6,0,19.7-1,27.3-3.1c7.7-2.1,14.1-5,19.4-8.7c5.3-3.7,9.6-8,12.9-13
	c3.3-5,5.8-10.4,7.6-16.2c1.8-5.8,3.1-11.8,3.9-17.9s1.2-12.6,1.2-19.4v-54l-17.4,0C222.2,184,221.9,188.2,221.3,192.3z"/>
<path class="st1" d="M399.9,179.7c0,0.9,0.1,1.8,0.1,2.7c0,7.8-1.1,15.4-3.3,22.6c-2.2,7.2-5.5,13.5-9.8,19s-9.9,9.8-16.5,13.1
	c-6.6,3.3-14.3,4.9-23,4.9c-8.9,0-16.7-1.6-23.4-4.9c-6.7-3.2-12.3-7.6-16.8-13.1s-7.9-11.8-10.1-19c-2.2-7.2-3.3-14.7-3.3-22.6
	c0-0.9,0-1.8,0.1-2.8l-17.6,0c0,1-0.1,1.9-0.1,2.9c0,10.2,1.5,19.7,4.6,28.6c3.1,8.8,7.6,16.5,13.5,23.1c6,6.6,13.3,11.7,22.1,15.4
	s18.8,5.6,30.2,5.6c11.5,0,21.7-2,30.6-5.9s16.3-9.2,22.4-15.9s10.6-14.5,13.7-23.4s4.7-18.3,4.7-28.4c0-0.7,0-1.4,0-2.1
	L399.9,179.7z"/>
<path class="st1" d="M297,159.9c2.2-7.2,5.6-13.7,10-19.3c4.5-5.6,10-10.1,16.5-13.4c6.6-3.3,14.2-5,23-5c9.2,0,17.2,1.6,23.9,4.9
	c6.7,3.2,12.2,7.6,16.6,13.1s7.6,11.8,9.8,19.1c0.9,3.2,1.7,6.5,2.2,9.9h18c-0.7-5.6-1.9-10.9-3.6-16.1c-3-8.9-7.4-16.7-13.3-23.3
	c-5.9-6.6-13.2-11.8-21.9-15.6c-8.8-3.8-19-5.7-30.6-5.7c-11.5,0-21.7,1.9-30.6,5.8c-8.9,3.9-16.4,9.2-22.4,15.9
	c-6.1,6.7-10.7,14.6-13.8,23.6c-1.7,4.9-3,10.1-3.7,15.4h17.8C295.3,166,296,162.9,297,159.9z"/>
<polygon class="st1" points="456.1,252.2 473,252.2 473,179.7 456.1,179.7 "/>
<path class="st1" d="M522.3,108.8c-2-0.1-4.3-0.2-6.9-0.2c-5.2,0.1-10,0.8-14.5,2.3c-4.5,1.4-8.5,3.6-12,6.6s-6.7,6.9-9.5,11.6
	c-2.8,4.7-4.9,10.3-6.4,16.9l-0.5-33.9h-17.8l1.4,32.5v24.7h17.1c0.4-5.9,1.4-11.3,3.2-16.2c2.1-6.2,5-11.5,8.6-15.9
	c3.6-4.4,7.9-7.7,12.9-10c5-2.3,10.5-3.5,16.5-3.5c3.5,0,6.3,0.2,8.4,0.5c2.1,0.3,3.6,0.7,4.4,1l-0.1-15.6
	C525.9,109.2,524.3,108.9,522.3,108.8z"/>
<path class="st1" d="M563.3,159.9c2.2-7.2,5.6-13.7,10-19.3c4.5-5.6,10-10.1,16.5-13.4c6.6-3.3,14.2-5,23-5c9.2,0,17.2,1.6,23.9,4.9
	c6.7,3.2,12.2,7.6,16.6,13.1s7.6,11.8,9.8,19.1c0.9,3.2,1.7,6.5,2.2,9.9h18c-0.7-5.6-1.9-10.9-3.6-16.1c-3-8.9-7.4-16.7-13.3-23.3
	c-5.9-6.6-13.2-11.8-21.9-15.6c-8.8-3.8-19-5.7-30.6-5.7c-11.5,0-21.7,1.9-30.6,5.8c-8.9,3.9-16.4,9.2-22.4,15.9
	c-6.1,6.7-10.7,14.6-13.8,23.6c-1.7,4.9-3,10.1-3.7,15.4h17.8C561.6,166,562.4,162.9,563.3,159.9z"/>
<path class="st1" d="M666.3,179.5c0,0.9,0.1,1.9,0.1,2.8c0,7.8-1.1,15.4-3.3,22.6c-2.2,7.2-5.5,13.5-9.8,19s-9.9,9.8-16.5,13.1
	c-6.6,3.3-14.3,4.9-23,4.9c-8.9,0-16.7-1.6-23.4-4.9c-6.7-3.2-12.3-7.6-16.8-13.1s-7.9-11.8-10.1-19c-2.2-7.2-3.3-14.7-3.3-22.6
	c0-1,0-2,0.1-2.9l-17.6,0c0,1-0.1,2-0.1,3c0,10.2,1.5,19.7,4.6,28.6c3.1,8.8,7.6,16.5,13.5,23.1c6,6.6,13.3,11.7,22.1,15.4
	s18.8,5.6,30.2,5.6c11.5,0,21.7-2,30.6-5.9s16.3-9.2,22.4-15.9s10.6-14.5,13.7-23.4s4.7-18.3,4.7-28.4c0-0.8,0-1.5,0-2.3
	L666.3,179.5z"/>
<polygon class="st1" points="722.4,252.2 739.3,252.2 739.3,179.5 722.4,179.5 "/>
<path class="st1" d="M824.1,179.8v72.5h17v-72.8l-17,0C824.1,179.6,824.1,179.7,824.1,179.8z"/>
<path class="st1" d="M837.4,140.4c-1.8-6-4.5-11.4-8.3-16.1c-3.7-4.7-8.7-8.5-14.8-11.4c-6.1-2.9-13.7-4.3-22.8-4.3
	c-11.9,0-22.1,2.5-30.6,7.4c-8.4,4.9-15.7,12.8-21.7,23.5V46.1h-17v123.1h17c0.2-5.9,1.1-11.5,2.8-16.8c2-6.1,4.9-11.3,8.7-15.8
	c3.8-4.5,8.6-8,14.3-10.5c5.7-2.6,12.3-3.8,19.9-3.8c12.6,0,22,3.5,28.4,10.4c6.3,6.9,9.8,16.9,10.5,29.8c0,0.1,0,2.2,0.1,6.2
	c0,0.2,0,0.4,0,0.6h17.1v-4.3l-0.3-6C840.3,152.6,839.2,146.4,837.4,140.4z"/>
<polygon class="st1" points="905.2,277 878.1,277 878.1,288.9 921.4,288.9 921.4,179.4 905.2,179.4 "/>
<polygon class="st1" points="880.4,51.7 878,63.7 905.2,63.7 905.2,169.2 921.4,169.2 921.4,51.7 "/>
</svg>
