<?xml version="1.0" encoding="utf-8"?>
<!-- Generator: Adobe Illustrator 19.0.0, SVG Export Plug-In . SVG Version: 6.00 Build 0)  -->
<svg version="1.1" id="Layer_1" xmlns="http://www.w3.org/2000/svg" xmlns:xlink="http://www.w3.org/1999/xlink" x="0px" y="0px"
	 viewBox="0 0 400 150" style="enable-background:new 0 0 400 150;" xml:space="preserve">
<style type="text/css">
	.st0{fill:#293249;}
</style>
<g id="XMLID_1_">
	<path id="XMLID_2_" class="st0" d="M33.7,122.2H15.1V20.5h18.5v5.2H21.9v91.4h11.8V122.2z"/>
	<path id="XMLID_5_" class="st0" d="M56.8,46.3l0.3,11.5c0.9-2.2,2.1-4.2,3.6-5.8c1.5-1.6,3.2-3,5.1-4c1.9-1.1,3.9-1.8,6.1-2.4
		c2.2-0.5,4.4-0.8,6.7-0.8c2.5,0,4.8,0.4,7,1.1c2.2,0.7,4.1,1.7,5.9,3c1.7,1.3,3.2,2.8,4.3,4.6c1.2,1.8,2,3.7,2.4,5.8
		c0.9-2.5,2-4.6,3.5-6.4s3.2-3.3,5.1-4.5c2-1.2,4.1-2.1,6.5-2.6s5-0.9,7.8-0.9c3.2,0,5.9,0.4,8.1,1.2c2.3,0.8,4.2,1.9,5.7,3.2
		c1.5,1.3,2.8,2.9,3.7,4.6c0.9,1.7,1.6,3.5,2.1,5.3c0.5,1.8,0.8,3.6,0.9,5.3c0.1,1.7,0.2,3.2,0.2,4.6v37.4h-7.3V73.6
		c0-3.7-0.2-6.9-0.7-9.8c-0.5-2.9-1.3-5.2-2.5-7.2s-2.9-3.4-5-4.4c-2.1-1-4.9-1.5-8.2-1.5c-3,0-5.7,0.6-8.1,1.7
		c-2.3,1.1-4.3,2.7-5.8,4.6c-1.6,1.9-2.8,4.2-3.6,6.7c-0.9,2.6-1.3,5.3-1.3,8.1v34.6H92V69.1c0-6-1.4-10.6-4.3-13.7
		c-2.9-3.1-7-4.7-12.4-4.7c-3,0-5.7,0.5-8,1.6c-2.3,1.1-4.2,2.6-5.7,4.5c-1.5,1.9-2.7,4.2-3.5,6.7c-0.8,2.6-1.3,5.4-1.3,8.3v34.6
		h-7.3V61.3c0-0.7,0-2.2,0-4.7c0-2.5-0.1-5.9-0.3-10.3H56.8z"/>
	<path id="XMLID_7_" class="st0" d="M209.1,94.6l2.1,5.6c-2.9,2.7-6.3,4.6-10.2,5.8c-3.9,1.2-8.3,1.8-13.2,1.8
		c-4.6,0-8.8-0.8-12.5-2.3c-3.7-1.5-6.7-3.7-9.3-6.4s-4.4-6-5.8-9.8c-1.3-3.8-2-8-2-12.5c0-4.3,0.7-8.4,2-12.3
		c1.3-3.9,3.2-7.2,5.7-10.1c2.5-2.9,5.6-5.2,9.2-6.9c3.6-1.7,7.7-2.5,12.3-2.5c4.5,0,8.5,0.8,11.8,2.3c3.3,1.5,6.1,3.6,8.3,6.4
		c2.2,2.7,3.8,6,4.8,9.8c1.1,3.8,1.6,8,1.6,12.5c0,0.3,0,0.7,0,1c0,0.4,0,0.7,0,0.8H166v1.1c0,3.5,0.5,6.6,1.6,9.5
		c1,2.9,2.5,5.3,4.5,7.3c2,2,4.3,3.6,7.1,4.7c2.8,1.1,5.9,1.7,9.4,1.7c4.4,0,8.3-0.6,11.8-1.9C203.8,98.8,206.7,97,209.1,94.6z
		 M166.1,71.7h40.3v-0.1V72c-0.1-3.2-0.6-6-1.3-8.6c-0.8-2.6-1.9-4.8-3.4-6.7c-1.5-1.9-3.5-3.3-5.8-4.4c-2.4-1-5.2-1.6-8.5-1.6
		c-3.2,0-6.1,0.6-8.6,1.7c-2.5,1.1-4.6,2.6-6.4,4.5c-1.8,1.9-3.2,4.1-4.2,6.7C167.1,66.2,166.4,68.9,166.1,71.7z"/>
	<path id="XMLID_10_" class="st0" d="M237.4,106.5h-7.3V60.3l-0.5-13.9h7.6l0.4,11.8c4.7-8.8,12.1-13.2,22.3-13.2
		c2.9,0,5.5,0.4,7.7,1.1c2.2,0.7,4.1,1.7,5.7,2.9s2.9,2.7,3.9,4.3c1,1.6,1.8,3.4,2.3,5.3c0.5,1.9,0.9,3.9,1.2,5.9s0.4,4.1,0.4,6.1
		c0,1.1,0.1,3,0.1,5.9c0,2.9,0,6.4,0,10.6v19.5h-7.3V74.7c0-2.1,0-3.8,0-5c0-1.2,0-2-0.1-2.3c-0.2-5.5-1.7-9.7-4.4-12.5
		c-2.8-2.8-6.5-4.2-11.3-4.2c-2.2,0-4.2,0.3-6.1,0.8c-1.9,0.6-3.5,1.3-5,2.3c-1.5,0.9-2.8,2-4,3.2c-1.1,1.2-2.1,2.4-3,3.7
		c-0.9,1.3-1.5,2.5-1.9,3.7c-0.4,1.2-0.6,2.3-0.6,3.3V106.5z"/>
	<path id="XMLID_12_" class="st0" d="M344.7,46.3h7.3v46.2c0,0.6,0,2.1,0.1,4.4c0,2.3,0.1,5.5,0.2,9.5h-7.6V94.6
		c-2.2,4.6-5.1,8-8.8,10.1c-3.7,2.1-8.1,3.2-13.4,3.2c-4.3,0-7.9-0.7-10.7-2.2c-2.8-1.5-5-3.4-6.6-5.7c-1.6-2.3-2.7-5-3.4-7.9
		c-0.6-2.9-0.9-5.8-0.9-8.7V46.3h7.3v36.4c0.1,3.2,0.4,5.9,0.9,8.3c0.5,2.4,1.4,4.4,2.8,6c1.3,1.6,3.1,2.9,5.2,3.7
		c2.1,0.8,4.8,1.3,7.9,1.3c3.2,0,6-0.5,8.4-1.6c2.4-1,4.5-2.5,6.2-4.3c1.7-1.8,2.9-4,3.8-6.4s1.3-5.1,1.3-8v-0.7V46.3z"/>
	<path id="XMLID_14_" class="st0" d="M369.3,20.5h17.6v101.7h-18.6v-5.1h11.6V25.7h-11.7L369.3,20.5z"/>
</g>
</svg>
