<?xml version="1.0" encoding="utf-8"?>
<!-- Generator: Adobe Illustrator 19.0.0, SVG Export Plug-In . SVG Version: 6.00 Build 0)  -->
<svg version="1.1" id="Layer_1" xmlns:sketch="http://www.bohemiancoding.com/sketch/ns"
	 xmlns="http://www.w3.org/2000/svg" xmlns:xlink="http://www.w3.org/1999/xlink" x="0px" y="0px" viewBox="-240 220 18 12"
	 style="enable-background:new -240 220 18 12;" xml:space="preserve">
<style type="text/css">
	.st0{fill:#293249;}
</style>
<rect x="-710" y="228.3" class="st0" width="18" height="1.3"/>
<path class="st0" d="M-222.4,223.2h-17.2c-0.2,0-0.4-0.2-0.4-0.4l0,0c0-0.2,0.2-0.4,0.4-0.4h17.2c0.2,0,0.4,0.2,0.4,0.4l0,0
	C-222,223-222.2,223.2-222.4,223.2z"/>
<path class="st0" d="M-222.4,226.4h-17.2c-0.2,0-0.4-0.2-0.4-0.4l0,0c0-0.2,0.2-0.4,0.4-0.4h17.2c0.2,0,0.4,0.2,0.4,0.4l0,0
	C-222,226.3-222.2,226.4-222.4,226.4z"/>
<path class="st0" d="M-222.4,229.8h-17.2c-0.2,0-0.4-0.2-0.4-0.4l0,0c0-0.2,0.2-0.4,0.4-0.4h17.2c0.2,0,0.4,0.2,0.4,0.4l0,0
	C-222,229.6-222.2,229.8-222.4,229.8z"/>
</svg>
