<?xml version="1.0" encoding="utf-8"?>
<!-- Generator: Adobe Illustrator 19.0.0, SVG Export Plug-In . SVG Version: 6.00 Build 0)  -->
<svg version="1.1" id="Layer_1" xmlns="http://www.w3.org/2000/svg" xmlns:xlink="http://www.w3.org/1999/xlink" x="0px" y="0px"
	 viewBox="-455 264.6 48 32.4" style="enable-background:new -455 264.6 48 32.4;" xml:space="preserve">
<style type="text/css">
	.st0{fill:#093249;}
</style>
<g>
	<path class="st0" d="M-413.5,268.5l-21.6,0.1c-0.3-1.1-1.4-2.7-2.5-2.7h-7.5c-1.1,0-2.2,1.5-2.5,2.6h-0.4c-1.9,0-3.5,1.6-3.5,3.5
		v19.5c0,1.9,1.6,3.5,3.5,3.5h34.5c1.9,0,3.5-1.6,3.5-3.5V272C-410,270-411.6,268.5-413.5,268.5z M-411,291.5c0,1.4-1.1,2.5-2.5,2.5
		H-448c-1.4,0-2.5-1.1-2.5-2.5V272c0-1.4,1.1-2.5,2.5-2.5h0.9c0.3,0,0.5-0.2,0.5-0.5c0-0.7,1-2.1,1.6-2.1h7.5c0.5,0,1.6,1.5,1.6,2.2
		c0,0.1,0.1,0.3,0.1,0.4c0.1,0.1,0.2,0.1,0.4,0.1l0,0l22-0.1c1.4,0,2.5,1.1,2.5,2.5C-411,272-411,291.5-411,291.5z"/>
	<path class="st0" d="M-431,272.7c-5.1,0-9.3,4.1-9.3,9.3c0,5.1,4.1,9.3,9.3,9.3c5.1,0,9.3-4.1,9.3-9.3
		C-421.8,276.8-425.9,272.7-431,272.7z M-431,290.2c-4.6,0-8.3-3.7-8.3-8.3c0-4.5,3.7-8.3,8.3-8.3c4.5,0,8.3,3.7,8.3,8.3
		C-422.8,286.5-426.5,290.2-431,290.2z"/>
	<path class="st0" d="M-431,276.9c-2.8,0-5,2.2-5,5s2.2,5,5,5s5-2.2,5-5S-428.2,276.9-431,276.9z M-431,285.9c-2.2,0-4-1.8-4-4
		s1.8-4,4-4s4,1.8,4,4S-428.8,285.9-431,285.9z"/>
	<path class="st0" d="M-415.7,271.6h-3.3c-0.9,0-1.7,0.7-1.7,1.7c0,0.9,0.7,1.7,1.7,1.7h3.3c0.9,0,1.7-0.7,1.7-1.7
		C-414,272.4-414.8,271.6-415.7,271.6z M-415.7,273.9h-3.3c-0.4,0-0.7-0.3-0.7-0.7s0.3-0.7,0.7-0.7h3.3c0.4,0,0.7,0.3,0.7,0.7
		S-415.3,273.9-415.7,273.9z"/>
</g>
</svg>
