<?xml version="1.0" encoding="utf-8"?>
<!-- Generator: Adobe Illustrator 19.0.0, SVG Export Plug-In . SVG Version: 6.00 Build 0)  -->
<svg version="1.1" id="Layer_1" xmlns="http://www.w3.org/2000/svg" xmlns:xlink="http://www.w3.org/1999/xlink" x="0px" y="0px"
	 viewBox="750.1 70.1 127.5 169.5" style="enable-background:new 750.1 70.1 127.5 169.5;" xml:space="preserve">
<style type="text/css">
	.st0{fill:url(#SVGID_1_);}
</style>
<linearGradient id="SVGID_1_" gradientUnits="userSpaceOnUse" x1="763.691" y1="156.4777" x2="863.894" y2="156.4777">
	<stop  offset="0" style="stop-color:#44BDC4"/>
	<stop  offset="1" style="stop-color:#5B79C6"/>
</linearGradient>
<path class="st0" d="M863.9,128l-0.1-1.8C860,102.9,839,85,813.8,85c-26.2,0-47.5,19.3-50.1,43.9v0.8c-0.4,42.9,50.1,98.1,50.1,98.1
	C813.8,227.9,865.6,171.2,863.9,128z M813.8,159.3c-13.6,0-24.7-11.1-24.7-24.7c0-13.6,11-24.7,24.7-24.7
	c13.7,0,24.7,11.1,24.7,24.7C838.5,148.2,827.4,159.3,813.8,159.3z"/>
</svg>
