<?xml version="1.0" encoding="utf-8"?>
<!-- Generator: Adobe Illustrator 19.0.0, SVG Export Plug-In . SVG Version: 6.00 Build 0)  -->
<svg version="1.1" id="Layer_1" xmlns="http://www.w3.org/2000/svg" xmlns:xlink="http://www.w3.org/1999/xlink" x="0px" y="0px"
	 viewBox="-455 152 48 48" style="enable-background:new -455 152 48 48;" xml:space="preserve">
<style type="text/css">
	.st0{fill:#507274;}
</style>
<g>
	<path class="st0" d="M-418.2,169.4h-5.8v-6c0-0.3-0.2-0.5-0.5-0.5c-0.3,0-0.5,0.2-0.5,0.5v6h-5.8c-0.3,0-0.5,0.2-0.5,0.5
		s0.2,0.5,0.5,0.5h5.8v6c0,0.3,0.2,0.5,0.5,0.5c0.3,0,0.5-0.2,0.5-0.5v-6h5.8c0.3,0,0.5-0.2,0.5-0.5S-417.9,169.4-418.2,169.4z"/>
	<path class="st0" d="M-424.5,154.2c-8.7,0-15.7,7.1-15.7,15.7c0,4,1.5,7.7,4,10.5l-16.8,16.8c-0.2,0.2-0.2,0.5,0,0.7
		c0.1,0.1,0.2,0.1,0.4,0.1c0.1,0,0.3,0,0.4-0.1l16.7-16.8c2.8,2.8,6.7,4.6,11,4.6c8.6,0,15.7-7.1,15.7-15.7
		S-415.8,154.2-424.5,154.2z M-424.5,184.7c-8.1,0-14.7-6.6-14.7-14.7c0-8.1,6.6-14.7,14.7-14.7c8.1,0,14.7,6.6,14.7,14.7
		S-416.4,184.7-424.5,184.7z"/>
</g>
</svg>
