<?xml version="1.0" encoding="utf-8"?>
<!-- Generator: Adobe Illustrator 19.0.0, SVG Export Plug-In . SVG Version: 6.00 Build 0)  -->
<svg version="1.1" id="Layer_1" xmlns="http://www.w3.org/2000/svg" xmlns:xlink="http://www.w3.org/1999/xlink" x="0px" y="0px"
	 viewBox="-455 152 48 48" style="enable-background:new -455 152 48 48;" xml:space="preserve">
<style type="text/css">
	.st0{fill:#FFFFFF;}
</style>
<g>
	<path class="st0" d="M-431,156.1c-11,0-20,8.9-20,19.9c0,11,9,20,20,20s19.9-9,19.9-20S-420,156.1-431,156.1z M-431,195
		c-10.4,0-19-8.5-19-18.9c0-10.4,8.5-18.9,19-18.9s18.9,8.5,18.9,18.9C-412.1,186.5-420.6,195-431,195z"/>
	<path class="st0" d="M-423.4,171.3l-10.8,8.4l-4.4-4.9c-0.2-0.2-0.5-0.2-0.7,0c-0.2,0.2-0.2,0.5,0,0.7l4.7,5.3
		c0.1,0.1,0.2,0.2,0.4,0.2c0.1,0,0.2,0,0.3-0.1l11.2-8.7c0.2-0.2,0.3-0.5,0.1-0.7C-422.8,171.2-423.1,171.2-423.4,171.3z"/>
</g>
</svg>
