<?xml version="1.0" encoding="utf-8"?>
<!-- Generator: Adobe Illustrator 19.0.0, SVG Export Plug-In . SVG Version: 6.00 Build 0)  -->
<svg version="1.1" id="Layer_1" xmlns="http://www.w3.org/2000/svg" xmlns:xlink="http://www.w3.org/1999/xlink" x="0px" y="0px"
	 viewBox="-455 152 48 48" style="enable-background:new -455 152 48 48;" xml:space="preserve">
<style type="text/css">
	.st0{fill:#507274;}
</style>
<g>
	<path class="st0" d="M-418.9,159h-0.8c-0.3,0-0.5,0.2-0.5,0.5c0,0.3,0.2,0.5,0.5,0.5h0.8c0.3,0,0.5-0.2,0.5-0.5
		C-418.5,159.2-418.7,159-418.9,159z"/>
	<path class="st0" d="M-413.2,159h-0.8c-0.3,0-0.5,0.2-0.5,0.5c0,0.3,0.2,0.5,0.5,0.5h0.8c0.3,0,0.5-0.2,0.5-0.5
		C-412.7,159.2-413,159-413.2,159z"/>
	<path class="st0" d="M-413.1,153.7h-7.4c-2.9,0-5,1.8-5,4.4l0,2.8c0.3,3.9,3,4.4,5,4.4h0.8l-1.4,4c0,0,0,0,0,0c0,0,0,0.1,0,0.1
		c0,0,0,0.1,0,0.1c0,0.1,0,0.1,0.1,0.2c0,0,0.1,0.1,0.1,0.1h0l0,0c0,0,0.1,0.1,0.2,0.1c0,0,0.1,0,0.1,0c0,0,0.1,0,0.1,0
		c0.1,0,0.1,0,0.2-0.1c0,0,0,0,0,0l5.7-4.5h1.4c2.9,0,5-1.9,5-4.6v-2.8C-408.1,155.3-410.1,153.7-413.1,153.7z M-409.1,160.7
		c0,2.1-1.7,3.6-4,3.6h-1.6c-0.1,0-0.2,0-0.3,0.1l-4.6,3.6l1.1-3.1v0c0,0,0,0,0,0l0,0c0-0.1,0-0.2,0-0.3v0c0,0,0,0,0-0.1v0l0,0
		c-0.1-0.1-0.1-0.2-0.2-0.2l0,0h0c0,0,0,0,0,0c-0.1,0-0.1,0-0.1,0h-1.5c-2.6,0-3.8-1-4-3.4v-2.8c0-2.4,2-3.4,4-3.4h7.4
		c1.9,0,4,0.8,4,3.2C-409.1,157.9-409.1,160.7-409.1,160.7z"/>
	<path class="st0" d="M-426.2,184.6c-0.5-1.2-0.9-2.9-1-5c0.9-1.4,1.6-3.1,2-5.1c2.3-2.8,0.5-5,0-5.5c-1-4.7-4.3-8.2-7.7-8.2
		c-3.7,0-7,3.7-7.8,8.7c-0.3,0.3-1.1,1.3-1.1,2.5c0,0.9,0.4,1.8,1.2,2.6c0.4,2.3,1.4,4.3,2.6,5.8c-0.1,1.7-0.4,3.1-0.9,4.1
		c-2.1,0.2-14.9,1.8-15.1,8.2v5c0,0.3,0.2,0.5,0.5,0.5h41.9c0.3,0,0.5-0.2,0.5-0.5v-5.1C-411.3,186.4-424,184.8-426.2,184.6z
		 M-439.8,174.1c-0.7-0.6-1-1.3-1-2c0-1.1,0.9-1.9,0.9-2c0.1-0.1,0.1-0.2,0.2-0.3c0.7-4.7,3.5-8,6.8-8c3,0,5.9,3.2,6.8,7.5
		c0,0.1,0.1,0.2,0.2,0.3c0.1,0.1,2.1,1.9,0,4.4c-0.1,0.1-0.1,0.2-0.1,0.2c-0.7,4.5-3.6,7.8-6.8,7.8c-1.6,0-3-0.7-4.2-2
		c0,0,0,0-0.1-0.1c-1.2-1.4-2.1-3.3-2.5-5.6C-439.7,174.3-439.7,174.2-439.8,174.1z M-412.1,197.4H-453v-4.5
		c0.2-5.9,14.3-7.3,14.5-7.3c0.2,0,0.3-0.1,0.4-0.3c0.5-1,0.9-2.4,1-3.9c1.2,1.1,2.7,1.7,4.2,1.7c1.8,0,3.5-0.8,4.9-2.3
		c0.2,1.9,0.5,3.5,1.1,4.6c0.1,0.1,0.2,0.3,0.4,0.3c0.1,0,14.3,1.3,14.5,7.3V197.4z"/>
</g>
</svg>
