<?xml version="1.0" encoding="utf-8"?>
<!-- Generator: Adobe Illustrator 19.0.0, SVG Export Plug-In . SVG Version: 6.00 Build 0)  -->
<svg version="1.1" id="Layer_1" xmlns="http://www.w3.org/2000/svg" xmlns:xlink="http://www.w3.org/1999/xlink" x="0px" y="0px"
	 viewBox="-455 257 48 48" style="enable-background:new -455 257 48 48;" xml:space="preserve">
<style type="text/css">
	.bottom-menu{fill:#293249;}
</style>
<g>
	<path class="bottom-menu" d="M-421.4,280.6c-0.8-1.4-2.4-1.6-3.1-1.6h-0.5v-2.9c0-0.3-0.2-0.5-0.5-0.5c-0.3,0-0.5,0.2-0.5,0.5v2.9h-8.5
		v-2.9c0-0.3-0.2-0.5-0.5-0.5c-0.3,0-0.5,0.2-0.5,0.5v2.9h-1.9c-1,0-2.3,0.4-3.1,1.6l-6.7,10.3c-0.1,0.1-0.1,0.2-0.1,0.3v7.7
		c0,1,0.8,1.8,1.8,1.8h29.1c1,0,1.8-0.8,1.8-1.8v-7.9c0-0.1,0-0.2-0.1-0.3L-421.4,280.6z M-415.6,298.8c0,0.5-0.4,0.8-0.8,0.8h-29.1
		c-0.5,0-0.8-0.4-0.8-0.8v-7.5l6.6-10.1c0.8-1.1,2-1.1,2.3-1.1h13c0.5,0,1.7,0.1,2.3,1.1l6.6,9.9L-415.6,298.8L-415.6,298.8z"/>
	<path class="bottom-menu" d="M-431,284c-3.5,0-6.3,2.8-6.3,6.3c0,3.5,2.8,6.3,6.3,6.3c3.5,0,6.3-2.8,6.3-6.3
		C-424.8,286.8-427.6,284-431,284z M-431,295.6c-2.9,0-5.3-2.4-5.3-5.3c0-2.9,2.4-5.3,5.3-5.3s5.3,2.4,5.3,5.3
		C-425.8,293.2-428.1,295.6-431,295.6z"/>
	<path class="bottom-menu" d="M-409.1,269.5c-2.2-4.1-8-5.7-8.2-5.8c-4.4-1.4-8.8-2.1-13.1-2.1c-8.7,0-13.9,2.9-14.1,3
		c-5.3,2.7-8.3,5.6-8.9,8.7c-0.5,2.6,0.8,4.2,0.9,4.3c0.4,0.5,0.7,0.7,1.2,1c1.2,0.6,2.5,1,3.8,1l0,0c3.7,0,6.6-2.3,7.1-2.7
		c0.5-0.4,0.9-1.1,0.9-1.2c0.1-0.1,0.8-1.5,0-4.9l0-0.2c3.1-1.2,6.3-1.8,9.5-1.8c4,0,6.9,1,7.9,1.3c-0.4,4,0.5,5.1,0.8,5.3
		c1.6,1.6,4.3,2.5,7.3,2.5c1.4,0,2.7-0.2,3.5-0.6c1.2-0.6,1.8-2.1,1.9-2.2C-408.1,273.1-408.2,271.2-409.1,269.5z M-409.7,274.8
		c0,0-0.5,1.2-1.4,1.6c-0.7,0.3-1.9,0.5-3.1,0.5c-2.8,0-5.2-0.8-6.6-2.3c0,0-0.9-0.8-0.4-4.8c0-0.2-0.1-0.4-0.3-0.5
		c-0.1-0.1-3.5-1.5-8.6-1.5c-3.4,0-6.9,0.7-10.2,2c-0.2,0.1-0.3,0.3-0.3,0.5l0.1,0.7c0.7,3.1,0.1,4.3,0.1,4.3
		c-0.1,0.2-0.4,0.7-0.7,0.9c-1.4,1.2-3.9,2.5-6.5,2.5c-1.2,0-2.3-0.3-3.4-0.8c-0.3-0.2-0.5-0.3-0.9-0.8c0,0-1.1-1.4-0.6-3.4
		c0.4-1.9,2.2-4.9,8.4-8.1c0.1,0,5.2-2.9,13.6-2.9c4.2,0,8.5,0.7,12.8,2c0.1,0,5.6,1.6,7.6,5.3C-409.2,271.4-409.1,273-409.7,274.8z
		"/>
</g>
</svg>
