<?xml version="1.0" encoding="utf-8"?>
<!-- Generator: Adobe Illustrator 19.0.0, SVG Export Plug-In . SVG Version: 6.00 Build 0)  -->
<svg version="1.1" id="Layer_1" xmlns="http://www.w3.org/2000/svg" xmlns:xlink="http://www.w3.org/1999/xlink" x="0px" y="0px"
	 viewBox="-125 127 48 48" style="enable-background:new -125 127 48 48;" xml:space="preserve">
<style type="text/css">
	.st0{fill:#507274;}
</style>
<path class="st0" d="M-92.8,148.4h-5.6l-1-5.2c0.8-0.6,1.3-1.5,1.3-2.5c0-1.6-1.2-2.9-2.7-3.2V133c0-0.3-0.2-0.5-0.5-0.5
	s-0.5,0.2-0.5,0.5v4.6c-1.5,0.2-2.7,1.6-2.7,3.2c0,1.1,0.6,2.1,1.5,2.7l-1,5h-5.6c-0.3,0-0.5,0.2-0.5,0.5c0,0.3,0.2,0.5,0.5,0.5h5.4
	l-3.9,19.9l5.2-19.9h3.5l5,20.2l-3.8-20.2h5.4c0.3,0,0.5-0.2,0.5-0.5C-92.3,148.7-92.6,148.4-92.8,148.4z M-101.4,138.5
	c1.2,0,2.2,1,2.2,2.2c0,1.2-1,2.2-2.2,2.2s-2.2-1-2.2-2.2C-103.6,139.5-102.6,138.5-101.4,138.5z M-102.7,148.4l1.2-4.5
	c0,0,0.1,0,0.1,0c0.2,0,0.4,0,0.6-0.1l1.1,4.5L-102.7,148.4L-102.7,148.4z"/>
</svg>
